<?xml version="1.0" encoding="UTF-8"?>
<svg id="layer" xmlns="http://www.w3.org/2000/svg" version="1.1" viewBox="0 0 1850 1080">
  <!-- Generator: Adobe Illustrator 29.6.1, SVG Export Plug-In . SVG Version: 2.1.1 Build 9)  -->
  <path d="M655.8,1000.9c0-.1,0-.3,0-.4-.1.2-.3.4-.4.5,0,0,.1,0,.2.1,0,0,0-.2,0-.3Z" fill="#70ba2b"/>
  <path d="M599.8,954.9c-.7.6-1.4,1.2-2,1.8,3.3,8.5-1.6,21.6-5.6,10.3,0,.7-.3,1.5-.4,2.2,0,1.3-.3,2.6-.7,3.7-.2.8-.4,1.6-.6,2.4,3.5-1.4,7.6-1.1,10.2.1,5.6-7.2,10.5-1.6,5.3-12.3-.9-1.8-3.9-5-6.2-8.3Z" fill="#70ba2b"/>
  <path d="M611.8,966.6c.5-1.3,1.2-2.7,2.3-4.5.2-.3.3-.5.5-.7,0,0,0,0,0,0-.2.3-.4.5-.5.7.2-.4.2-.7.4-1.1,0-.3-.2-.4-.2-.8,0-1.9.5-3.3,1.2-4.5-.4-3.6-2.6-7-4.7-10.4-.6.5-1.4,1.2-2.1,1.8-.2,6.9.7,13.1,3,19.5Z" fill="#70ba2b"/>
  <path d="M610.7,912h-.8c-.5.2-1.1.3-1.7.5.8.7,1.5,1.5,2.4,2-.1-1,0-1.8,0-2.5Z" fill="#70ba2b"/>
  <path d="M631.5,955.1c-.7,1.4-2.9,3.7-5.6,5.7,1.9,1.3,4,2.3,6.7,2.8,0,0,0,.2-.1.3,7.7,1.3,5.5,11-1.5,8.8.2,2.3.8,4.7,1.6,7.1,5,1.8,8.9,5.6,5.5,11.9,0,0,0,0,0,0,.7-1.3,1.4-2.5,0,0,1,1.6,2,3.1,3,4.5,4,.2,8.4,1.1,10,2.1-.8,1.5-2.6,3.2-4.7,4.7.8,1.1,1.7,2.2,2.7,3.4,1.9-3.7,4.3-7.7,6.4-5.2.1-.2.2-.3.4-.5,1-6.4,3.6-29.9-5.9-31,6.1-5.4-2.7-19.1-3.7-26.3,0,0,0,0,0-.1-3.2,1.3-7.9.5-10.3-.9-9.3-5.2-3.1.4-12.3-.8-5.1-.7-7.5-7-7.9-13.1-1.1,3.7-.3,9-4.3,7.8,3,5.7,5,12,7.8,17.2,3.8-1.1,8.9,0,12.3,1.8Z" fill="#70ba2b"/>
  <path d="M652.2,956.1s0,0,0,0c0,0,0,0,0,0h0c0-.1,0-.1,0-.1,0,0,0,0,0,.1h0Z" fill="#70ba2b"/>
  <path d="M645.9,941.3c-.6-3.8-1.5-7.5-2.6-11.1-.9,1.6-2.1,3.5-3.7,5.2,1.4,2.8,4.1,5,6.3,5.9Z" fill="#70ba2b"/>
  <path d="M650.6,950.9l-1.3-4.4c-.4,1.5-.5,3.2.3,5.1.4-.4.7-.5,1-.8Z" fill="#70ba2b"/>
  <path d="M569.5,968c.1-.3.1-.5.3-.8.4-.7,1-1.3,1.7-1.9-2.3-1.5-4.6-3.4-6.1-4.4.4,3.3,2.2,5.3,4.2,7Z" fill="#70ba2b"/>
  <path d="M660,1009.1c.9.2,1.5.6,2.3.8-.2-1-.2-1.9-.2-2.9-1.3,0-2.4-.3-3.5-.6.2,1.2.7,2.3,1.2,3.4,0-.3.1-.4.1-.7Z" fill="#70ba2b"/>
  <path d="M578.6,957.2c-.9-2.4-.9-5.9-5.1-6.4,3.5-.6,13.2-.8,16.3-3.3,2.1-1.8,2.7-5.9,3.8-10.1-1,.5-2.1.8-3.4.8-.1-.4,0-.5-.1-.9-.7.9-1.3,1.6-2,2.4.8,1.1,1.6,2.4,2.3,4-1.2.5-2.4.9-3.7,1.4-1.9,0-3.4,0-4.7-.3-4.5,2.6-9,3.3-14.3,6.3.8,3.3,1.7,6.2,2,7.8,2.2-1.5,6.2-2.5,8.9-1.6Z" fill="#70ba2b"/>
  <path d="M596,931.1c.2-.4.5-.8.8-1.2-.7-3.1,2.1-7.7,3.9-9.5,1.4,1.1,2.1,2.4,2.6,3.9.9-.5,1.7-1,2.4-1.5.2-.6.3-1.3.4-1.9-.3,1.5-2.2-1,0-.4-4.4-1.2-1.2-4.5-3.8-7.7-2.3,1.8-3.4,4.6-5,7,.3,0,.7,0,1,0-1.2,3.1-7.7,8.5-10.6,4.9-.3,0-.6,0-.9,0-.3.8-.7,1.5-1,2.2l-.9,4.7c2.2.5,4.1,1.1,5.1,2,.7-2.1,2.9-2.5,5.9-2.6Z" fill="#70ba2b"/>
  <path d="M593.1,957.1c.2-.1.5,0,.7-.2.7-2.4,2.1-4.2,3.7-5.8-1.2-2.7-.9-5,2.9-5.8,1.7-.4,2.8-1.6,3.7-3.2-5.8,2.4-4.5-4.7-2.9-8.5-6.3,5.2-7.7,15.8-8.2,23.4Z" fill="#70ba2b"/>
  <path d="M544,964.5c-.4,3.6-1.8,6.7-4.2,9.2,3.7-.9,8.2-.1,11.8,1.1-.4,1.1-1,1.8-1.5,2.7.8.4,1.7,1,2.7,1.9.3-.4.5-.8.8-1.1-.8-1.7-1.6-3.8-2.2-5.8-3.3-.7-7-4.1-7.3-7.9Z" fill="#70ba2b"/>
  <path d="M606.1,933.8c0-1,.1-1.9.1-2.8-.4.1-.7.3-1.1.5.1.8.5,1.6,1,2.3Z" fill="#70ba2b"/>
  <path d="M555.9,976c.7-.2,1.4,0,2.1.1-.6-1.4-1.1-2.9-1.5-4.4,0,1.2-.2,2.6-.6,4.3Z" fill="#70ba2b"/>
  <path d="M1512.3,613.5c0-.1-.2-.3-.2-.4-.7-.4-1.1-.8-1.4-1.1,0,.1,0,.3,0,.4,0-.1,0-.3,0-.4-.5-.7-.7-1.3-.2-1.9,0-.4,0-.8-.1-1,0,.4,0,.6.1,1,0,0,.1-.1.2-.2-.1-.4-.3-.8-.3-1.1,1.7-2.3,3.2-3,4.7-2.9.4-.4.7-.9,1-1.4-1-.7-1.8-1.5-2.5-2.2-.8.1-1.5.1-2.3,0-1.2.8-2.4,1.5-3.6,1.9.2,3.7.2,7.2-.2,9.8,1.7-.3,3.4-.5,5-.4Z" fill="#70ba2b"/>
  <path d="M1545.9,586.8c.7-1.6,2-3.5,4.6-5.5-.8-.3-1.8-.7-2.9-1.2-2.2,1.2-4.5,2-6.3,2.4,1,1,1.9,2.8,2.6,4.7,1-.6,1.5-.6,1.9-.4Z" fill="#70ba2b"/>
  <path d="M682.2,957.4c2.7-1,5.8-1,8.8-2.3-3.1.4-6,.8-8.8,2.3Z" fill="#70ba2b"/>
  <path d="M769.4,938.3c-.3,2.8.1,6.1,1.3,9l-1.3-9Z" fill="#70ba2b"/>
  <path d="M766.4,939.8c-.5-2.6-1-6.1-1.7-9.4-1,1.7-1.9,3.6-2.4,5.8,1.4.3,2.9,1.2,4.1,3.6Z" fill="#70ba2b"/>
  <path d="M626.3,971.5c0-2.9-1.6-2,0,0h0Z" fill="#70ba2b"/>
  <path d="M778.1,958c.1.2.2.4.4.5.2-.2.5-.4.7-.7-.3,0-.7.2-1,.1Z" fill="#70ba2b"/>
  <path d="M789,964.9c-1.6.9-3.2,1.8-4.8,2.7,2.1,2.8,4.8,4.8,10.1,5.8.8.1,1.4.4,1.9.6-.5-2.6-.7-5.7-.8-8.4-2.3.4-4.5.2-6.4-.7Z" fill="#70ba2b"/>
  <path d="M582.4,993c-1.1.2-2,.6-2.7,1.1.8.9,1.6,1.8,2,2.6.1-.4.4-1.2.7-2.1,0-.5,0-1,0-1.6Z" fill="#70ba2b"/>
  <path d="M775.1,953.8c-.3-9.6,11.3-8.6,17.1-5.2-.5,1.1-1.3,2.3-2.3,3.5,3.6-.5,6-5.7,4.9-10.3-2.1.5-4.1.2-5.5-1.8-1.1-1.7-1.1-3.5-.6-5.4-4.2-3.6-9.2-8.4-14-9.1-.2,0-.4,0-.6,0-1.7,1.2-2.9,2.7-2.3,7,1.1,7.2,2.1,14.3,3.1,21.5Z" fill="#70ba2b"/>
  <path d="M786.4,958.2v-2.8c-.8.6-1.6.9-2.5,1.3.4.6.9,1.2,1.3,1.8.4,0,.8-.2,1.2-.3Z" fill="#70ba2b"/>
  <path d="M685.7,966.8c-1.8-2.7-3.5-5.4-6.4-7.2-4.3,4.6,2.2,6.4,2.5,10.1.6-.9,1.8-1.9,3.9-3Z" fill="#70ba2b"/>
  <path d="M588.3,984.2c-.1,0-.2-.3-.3-.4-.4,1.3-.8,2.6-1.2,3.9.8.2,1.7.4,2.8.4-.4-1.3-.9-2.7-1.3-4,.4,1.3-.4-.2,0,0Z" fill="#70ba2b"/>
  <path d="M587.5,962.5c-5.1,3.2-.4,9.3-8.2,11.9-.8.3-1.8.3-2.9.3.8,1.7.9,3.8,0,6.7,0,0,.1,0,.2,0,1.4-2.7,2.8-5.2,6.5-4.7.8-2.4.8-5.5,1.9-8.6.7-1.9,1.6-3.7,2.3-5.5Z" fill="#70ba2b"/>
  <path d="M616.8,964.5c-1.2.8-2.1,1.8-2.9,3.2,2.1-1.4,4.4-1.6,6.8-.5-2.8-1,.3-1.5,0,0,.2-1.2.5-2.4.7-3.6-1.7.8-3.4,1.2-4.6.9Z" fill="#70ba2b"/>
  <path d="M624.3,978.4c-.3,1.1-.7,2.1-1.3,3,1.4.7,2.7,1.4,3.4,2.5,0-2.7-.8-4.4-2.1-5.5Z" fill="#70ba2b"/>
  <path d="M1501.9,606.5c0,.1,0,.2-.2.3.1,0,.2-.1.3-.2,0,0,0,0-.1,0Z" fill="#70ba2b"/>
  <path d="M584.7,959c-1.7.5-2.8.5-3.7.4.3.6.4,1.3.4,2.2,1.6-.6,2.8-1.3,3.3-2.5Z" fill="#70ba2b"/>
  <path d="M585,986.7c.4-1.6.8-3.1,1-4.6-1.6,2.1-1.8,3.6-1,4.6Z" fill="#70ba2b"/>
  <path d="M1500.3,615c-.6.8-.9,1.5-1,2.3.6-.5,1.3-.9,2.1-1.3-.3-.3-.6-.6-1-1Z" fill="#70ba2b"/>
  <path d="M107.5,894c-.2-.9-.4-1.8-.6-2.7l-.3-.3c-2.1,2.3-7.2,2.8-3.7,6.9,1.5-1.3,3.1-2.6,4.6-3.9Z" fill="#70ba2b"/>
  <path d="M156.8,918.8c1.3-.6,2.6-1.2,3.9-1.7-.2-.6-.6-1-1.2-1.2-.5.5-1.5,1.6-2.7,2.9Z" fill="#70ba2b"/>
  <path d="M159.4,915.9c2.6-2.6,4-6.4,4.4-10.2-.5-1-.6-2.1-.3-3.1-.3-.2-.5-.5-.8-.8h-.5c-4.7,2.9-1.3,8.3-6.9,11.1-.3,1.3-.7,2.5-1.1,3.7,1.2-.9,2.7-1.4,5.2-.6Z" fill="#70ba2b"/>
  <path d="M52.9,805.5c-.3-.3-.4-.7-.6-1-3-.3-6.1-.9-8.9-1.8-.2.9-.4,1.9-.7,3,3.3-.8,6.8-.8,10.2-.1Z" fill="#70ba2b"/>
  <path d="M775.8,973.7c-.2-.6-.1-1.5,0-2.5-1.2.4-2.5.9-3.7,1.1,1.7,8.4,8.8,8.1,14.8,5.4,0-1.1-.2-2.3-.2-3.7-2.8.2-8.1,10.3-10.9-.4Z" fill="#70ba2b"/>
  <path d="M175.4,906.5c-.6,0-1.1,0-1.7,0-.3.2-.6.4-.8.6-.5,1.6-1.2,2.8-2,3.1,2.3-.4,4-1.5,4.5-3.7Z" fill="#70ba2b"/>
  <path d="M229.9,898c-.5-.9-.9-1.8-1.2-2.7-.2,0-.5,0-.7,0-.3,0-.5.2-.8.3.9,1.2,1.8,2,2.7,2.5Z" fill="#70ba2b"/>
  <path d="M239,953.5c-2.7-2.8-2.7-7.6-1.7-11.2,4.3,1.6,8.6,4,10.2,8,1-1.8,2.7-4.8,2.7-4.8-1.7-1-2.4-2.3-2.7-4-5.2.7-12.8,0-14-5-1.3,6.8-.9,13.9,5.5,16.9Z" fill="#70ba2b"/>
  <path d="M225.5,889.7c0-.2,0-.5-.1-.8-.4,0-.9,0-1.4-.2,0,.6,0,1.2.3,1.9.4-.5.8-.7,1.2-1Z" fill="#70ba2b"/>
  <path d="M225.1,894.8c-.7-2.2-1.6-4.4-2.3-6.5-1.2-.6-2.4-1.6-3.6-2.8l-2.4-1.3c.5,1.5.8,2.9.9,3.2,1.3,4.4,3.8,6.9,7.4,7.4Z" fill="#70ba2b"/>
  <path d="M41,920.6s0,0,0,0c.3,0,.5,0,.7,0-.2,0-.4,0-.7,0Z" fill="#70ba2b"/>
  <path d="M1488.6,609.9c-.6-.2-1.3-.3-1.8-.5.4.5.8.9,1.2,1.6.3-.4.4-.7.7-1.1Z" fill="#70ba2b"/>
  <path d="M562,947.4c-.4-.2-.8-.3-1.1-.6-1.1-.9-.9-2.3,0-3.7-.6,0-.9-.3-1.6-.3-.5,1.7-1.1,3.4-1.7,5.1.5.4.9.8,1.4,1.1,1.2-.5,2.1-1.1,2.9-1.8Z" fill="#70ba2b"/>
  <path d="M1661.3,406.5l-.3.3c2.3,2.1,2.8,7.2,6.9,3.7-1.3-1.5-2.6-3.1-3.9-4.6-.9.2-1.8.4-2.7.6Z" fill="#70ba2b"/>
  <path d="M1685.7,278.4c-.5-1.6-1.1-3.2-1.7-4.8,3.2-.9,7.3-1,10,1.3,10.1,8.6-3-6.1,6.7,1.1-3-5.4,2.7-10.3,7.5-12.6.6-3.6,9.9-8.9,1.8-10.8,2.2,5.3-4.2,15.9-9.4,9.1-1.3-1.7-1.9-3.7-2.2-5.8-.5.5-.8,1-1.7,1.4-3.9,1.9-8.7,1-13.1.4l-.2.2c0,.2,0,.5,0,.7,9.6,6.7-14.1,17.6,2.2,19.8Z" fill="#70ba2b"/>
  <path d="M1664.8,288.3c-2.2.7-4.4,1.6-6.5,2.3-.6,1.2-1.6,2.4-2.8,3.6l-1.3,2.4c1.5-.5,2.9-.8,3.2-.9,4.4-1.3,6.9-3.8,7.4-7.4Z" fill="#70ba2b"/>
  <path d="M238.4,924.1c-8.6,10.1,6.1-3-1.1,6.7,5.4-3,10.3,2.7,12.6,7.5,3.6.6,8.9,9.9,10.8,1.8-5.3,2.2-15.9-4.2-9.1-9.4,1.7-1.3,3.7-1.9,5.8-2.2-.5-.5-1-.8-1.4-1.7-1.9-3.9-1-8.7-.4-13.1l-.2-.2c-.2,0-.5,0-.7,0-6.7,9.6-17.6-14.1-19.8,2.2,1.6-.5,3.2-1.1,4.8-1.7.9,3.2,1,7.3-1.3,10Z" fill="#70ba2b"/>
  <path d="M1562.6,523.1c.2,0,.3,0,.4-.1,0-.3-.2-.5-.3-.8,0,.7.2,1.4,0,0-.2-1.4,0-.7,0,0,0-.4,0-.7,0-1.1-.3,0-.6-.1-.8-.2.5.6.7,1.4.6,2.2Z" fill="#70ba2b"/>
  <path d="M1575.5,460.5c-.3.3-.7.4-1,.6-.3,3-.9,6.1-1.8,8.9.9.2,1.9.4,3,.7-.8-3.3-.8-6.8-.1-10.2Z" fill="#70ba2b"/>
  <path d="M1578.3,528.3s0,0,0,0c-.9,1-1.8,2.1,0,0Z" fill="#70ba2b"/>
  <path d="M1668,283.4c-.9.5-1.8.9-2.7,1.2,0,.2,0,.5,0,.7,0,.3.2.5.3.8,1.2-.9,2-1.8,2.5-2.7Z" fill="#70ba2b"/>
  <path d="M487.7,977.5c.8-2.8,1.3-5,1.7-7.1-.6.4-.9.8-1.6,1.2-1.5.7-2.8,1.2-3.9,1.4,1.5.6,2.6,2.5,3.8,4.5Z" fill="#70ba2b"/>
  <path d="M479.9,972.8c0,.4,0,.9,0,1.3.7-.5,1.2-.6,1.7-.9-.6,0-1.1-.2-1.6-.4Z" fill="#70ba2b"/>
  <path d="M461.5,960.5c0,0,0,.1,0,.2,0,0,.2-.1.3-.2h-.2Z" fill="#70ba2b"/>
  <path d="M507.4,1004.6c6.1,6-6.2,8.5,6.1,10.4,2-4.9,9-4.6,12.9-3.9-2.7-.5-1-1.3,0,0-3.3-4-6.6-7.4-10.5-10.7-.1,4.7-13.9-1.2-8.6,4.2Z" fill="#70ba2b"/>
  <path d="M1696.6,248.5c.4.4.8.7,1.2,1.1,0-1.1,0-2.2-.2-3.2l-.8.6c0,.3,0,.5,0,.8,0,.3-.2.5-.3.7Z" fill="#70ba2b"/>
  <path d="M543.7,955.3c1,.2,1.9.3,2.9.4-.8-1.2-1.8-1.3-2.9-.4Z" fill="#70ba2b"/>
  <path d="M553.3,961.9c1.1,2.5.8,4.3.5,6.3,1,.3,1.7.7,2.1,1.3-.5-2-.9-3.8-1.1-4.8,1.4.2,2.8.4,4.2.6-1-6.5-.5-9.6-7.6-13.4,1.2-.4,2.9-1,4.7-1.6-2.2.2-4.3.6-6.4,1,1.8,4,9,5.3,3.6,10.5Z" fill="#70ba2b"/>
  <path d="M256.3,956.3c-.8,0-1,.6-.9,1.6.6-.3,1.3-.5,2.3-.6,1.6-.2,2.7-.6,3.6-1-.4-1.1-.8-2.3-1-3.8-1.3,1.3-2.6,2.6-4,3.8Z" fill="#70ba2b"/>
  <path d="M1545.9,590.8c-.2.6-.3,1.3-.5,2,0,.4,0,.8.1,1.3,1.5-.4,2.9-.8,4.4-1.1-1.7-.2-3.1-.9-3.9-2.1Z" fill="#70ba2b"/>
  <path d="M396.9,980.2c-.1.5-.3.9-.4,1.4.3-.2.6-.5.9-.6-.3-.2-.3-.5-.4-.8Z" fill="#70ba2b"/>
  <path d="M265.5,926.8c-.3,0-.5-.2-.7-.3-.4.4-.7.8-1.1,1.2,1.1,0,2.2,0,3.2-.2l-.6-.8c-.3,0-.5,0-.8,0Z" fill="#70ba2b"/>
  <path d="M263.2,949.6c.3,0,.5.3.8.3,0-.3-.1-.6-.2-.9-.2.2-.4.4-.6.6Z" fill="#70ba2b"/>
  <path d="M266,944.6c1-.4,2.2-1,3.8-2.2-.3-3.1,1.9-9,4.3-14.6l-7.2-.2c0,2.1-3.9,10.5-3.9,14.8,1.2.8,2.1,1.5,3,2.2Z" fill="#70ba2b"/>
  <path d="M256.2,961.5c.5,1.4,1.1,2.8,1.9,4.3.9-1.2,1.6-2.4,2.2-3.2-1.3-1.6-2.6-1.9-4-1.1Z" fill="#70ba2b"/>
  <path d="M251.9,956c.4-.4-1.4-.2,0,0h0Z" fill="#70ba2b"/>
  <path d="M380.9,1007.7c-.2.1-.4.2-.6.3.2,0,.5,0,.7-.1,0,0,0-.1,0-.2Z" fill="#70ba2b"/>
  <path d="M248.1,955.6c-.2.4-.5.3-.8.6.7-.2,1.3-.4,1.9-.4-.3,0-.8-.2-1.2-.4,0,0,0,.1,0,.2Z" fill="#70ba2b"/>
  <path d="M393,992.8c0,.2-.1.5-.2.7.2,0,.3,0,.5.1,0-.3-.2-.5-.3-.8Z" fill="#70ba2b"/>
  <path d="M543.9,962.9c.2-2.4-.5-5-.7-7.4-2.3,1.6-3.7,3.7-4.3,6.5,1.4-.7,2.9-1.3,4.4-1.9.2.9.4,1.9.6,2.8Z" fill="#70ba2b"/>
  <path d="M1047.4,892.4c3.7,4.1,10.4.4,10.4,3.8,1.2-1.6,2.4-2.4,3.5-2.9,1.2-2.7,1.9-4.7,1.4-5.1-1.7,5.4-11.7,4.8-15.3,4.2Z" fill="#70ba2b"/>
  <path d="M1044.3,904c1,6.6.6,9.2,6.8,10.8-2.5-3.4-4.8-7.1-6.4-10.2-.1-.2-.3-.4-.4-.6Z" fill="#70ba2b"/>
  <path d="M1154.7,907.9c-.6-1.7.1-.1,0,0,1.2-.9-3.7-5-4.4-6.5-1.4,3.1,3.4,3.3,4.4,6.5Z" fill="#70ba2b"/>
  <path d="M1055.7,882.2c0,0-.3,0-.4,0,.2,0,.4.1.6.2l-.2-.3Z" fill="#70ba2b"/>
  <path d="M1147,895.9s0,0,0,0c0,0,0,0,0,0h0Z" fill="#70ba2b"/>
  <path d="M1114.4,892.2c.1-1.7.6-3.2,1.3-4.4-2-2.7-3.6-5.1-5.3-7.4-2.4.6-4.3.6-5.7,0,3.2,3.3,8.4,7.3,9.7,11.9Z" fill="#70ba2b"/>
  <path d="M1052.8,889.7c.5-2.1,3.2-3.4,5.8-4.1-1.5-.3-3.1-.4-4.7-.5-.1.8-.3,1.6-.2,2.9-6.5,1.7,0-7-9.8-3.6-.9.3-1.6.6-2.3,1,.5,1.7,1.2,3.7,2,5.7,2.2-3.8,3.9-6.8,9.2-1.4Z" fill="#70ba2b"/>
  <path d="M1116.7,884.5s.5.6,1,1.3c.4-.2.7-.4,1.2-.5-.7-.1-1.4-.4-2.2-.7.3.1,3.7,1.6,0,0Z" fill="#70ba2b"/>
  <path d="M1114.3,876.4c0,.3,0,.7-.2,1,.4-.2.8-.2,1.2-.3l-1-.6Z" fill="#70ba2b"/>
  <path d="M1057.6,905.7c-.4-1,0-2.7.6-4.6-2.7-1-5.7,1.1-9,1.8,2,3.7,4.1,7.3,6.3,10.6,2.8-1.6,7.8-2.9,12.1-4.3.7-1.3,1.6-2.7,3.1-4.2.6,1.1,1.3,1.7,2.1,2.2,1.9-1,3.1-2,3.1-3.3-2.7,0-4.4-1.2-5.2-3.7-1.3,1-2.8,1.6-4.3,2-2,5.3-6,10.4-8.8,3.5Z" fill="#70ba2b"/>
  <path d="M1030.3,877.4c3.1,4.7,4.6,6.1,5.3,5.9-.7-5-6.7-13.5-9.9-15.4-.4,1.1-.8,2.5-1.2,4,2.5.9,4.6,2.5,5.7,5.5Z" fill="#70ba2b"/>
  <path d="M1016,884.8c1.1.7,2.2,1.6,3.2,2.6.8-2.7.8-5.6-.7-8.8.2,3.2-.6,5.3-2.5,6.3Z" fill="#70ba2b"/>
  <path d="M966,902.6c.2-.1.5-.2.7-.3-.5-.1-.9-.2-1.4-.5.2.3.4.5.6.8Z" fill="#70ba2b"/>
  <path d="M990.4,871.5c0,0-.1,0-.2,0,0,0,0,0,0,0,0,0,.1,0,.1,0Z" fill="#70ba2b"/>
  <path d="M917.2,904.8c.9-2.2,1.8-3.8,2.8-5.2-.7,0-1.5.1-2.1,0-.2.7-.3,1.5-.5,2.2-.6-.2-1-.6-1.5-.8-.3,1.3-.6,2.5-1.1,3.7.4.6.9,1,1.2,1.7-.7.4-1.6.5-2.4.7,0,.5.2,1.1.3,1.6,1.7-1,3.2-2.1,4.2-3.7.4,1.8,1,2.6,1.7,2.8,0,0,0,0,0,0,1.2.2,2.7-1.4,3.9-2.6-2.2.2-4.4.1-6.5-.3Z" fill="#70ba2b"/>
  <path d="M916.1,919.9s0,0,.1-.1c0,0-.2,0-.2,0,0,0,0,.1,0,.2Z" fill="#70ba2b"/>
  <path d="M1031.6,897.9c3.6.9,6,.1,7.9-1.3-1.8-2.5-3.6-4.7-4.8-6-.7.8-1.5,1.7-2.4,2.8-.7-2.1-1.3-4.3-2-6.4-2.3-1.7-4.8-3.5-7.1-5.4-.3,7.3,1.5,14.6,8.4,16.3Z" fill="#70ba2b"/>
  <path d="M915.6,915.4c.5.2.9.4,1.4.6-.4-.3-.8-.7-1.1-1,0,.1-.1.3-.2.4Z" fill="#70ba2b"/>
  <path d="M918.2,909.2c.3-.1.6-.2.9-.3-.2,0-.4-.1-.7-.3,0,.2,0,.4-.1.6Z" fill="#70ba2b"/>
  <path d="M1260.9,868.8c0-.3,0-.7,0-1-.6-.2-1.3-.2-1.8-.5.1.2.8.7,1.7,1.5Z" fill="#70ba2b"/>
  <path d="M1317.9,822.3c-.6-.6-1.3-1.1-2.1-1.5-.7.3-1.2.5-1.9.7,1.3.3,2.6.8,3.8,1.2,0-.2.2-.3.3-.5Z" fill="#70ba2b"/>
  <path d="M1348.9,825c0,0,.1-.1.2-.2,0,0,0,0-.2,0,0,0,0,.2,0,.3Z" fill="#70ba2b"/>
  <path d="M1349.2,818c-2.1-1.3-3.9-2.3-5.6-3.1-1.8-.3-4-.8-6.3-1.4-.2.3-.4.5-.6.8,3.7,1.6,7.6,3.5,10,5.6.6-.6,1.4-1.2,2.5-1.9Z" fill="#70ba2b"/>
  <path d="M1301.9,836.3c-1.6.4-3.1.6-4.5.7.9.3,1.8.6,2.5,1,.6-.6,1.2-1.1,2-1.7Z" fill="#70ba2b"/>
  <path d="M1399.9,776.3c-.3-.2-.6-.3-.8-.5.4-.4.8-.9,1.2-1.3.2-.8.4-1.5.5-2.3-.9,0-1.7,0-2.6,0-3.1,2.1-8.3,2.5-11.9,1.8,0,.2,0,.2,0,0,0,0,0,0-.1,0-.6,1.2-1.3,2.1-1.9,2.6.4.3.9.6,1.4.9,1.9.4,3.8,1,5.6,1.7,1.9.4,3.8,1,5.3,2.8,0,0,0,.1,0,.2,0,0,.2.1.3.2,1.4-2.5,2.7-4.5,2.7-4.5.2-.5.2-.9.3-1.4Z" fill="#70ba2b"/>
  <path d="M1292.1,836.5c-1.1-.3-2-.8-2.9-1.3.2,1.2.2,2,0,2.2.7-.6,1.8-.8,2.9-1Z" fill="#70ba2b"/>
  <path d="M1395,763.1c2.8-1.2,5.2-.7,5.8,3.7,0,0,0,0,0,0,.2.1.3.2.5.3-.1-7.1-3-13.1-6.7-18.9-4.3,0-9.1-3.4-11.5-7.1-1,1.9-2.3,3.9-3.7,5.9,1,.2,1.9.5,2.7.9.9-1,1.8-2,0,0,0,0,0,0,0,0,4.2-4.7,13.1,3.2,9.6,5.9-4.1,3.1-8.8,2.8-12.8.3-.1,0-.2,0-.3,0-1.7.2-3.1,0-4.4-.6-.9,1.1-1.7,1.9-2.3,2.6.3.3.5.5.8.8,6.6-3,15.3,1.8,22.3,6.2Z" fill="#70ba2b"/>
  <path d="M1435,648h-.1c.1.1.2.1.3.1,0,0-.1-.1-.2-.1Z" fill="#70ba2b"/>
  <path d="M1401.3,789.3c-.1,1.1-.8,2.2-2.1,3.2.3,0,.6.2.9.3.4.2.7.5,1.1.7,1-3,2.8-4.3,5-.4-.8-3,2.5-4.3,4.9-4.2-2.6-2.5-3.3-6.5-3.8-10.2-1.2,0-2.3-.1-3.4-.5.4,2.6-.6,7.6-2.5,11Z" fill="#70ba2b"/>
  <path d="M1259.8,854.5c-.4.4-.8.8-1.3,1.1,0,1.2-.2,2.5-.3,4.1,1.2-.2,2.2-.6,3-1.4-.5-.5-1-2.2-1.4-3.8Z" fill="#70ba2b"/>
  <path d="M1256.5,858.5c-.4.3-1.3.6-2.3.9.3.1.5.2.8.3.5-.4,1.1-.9,1.5-1.2Z" fill="#70ba2b"/>
  <path d="M962.6,860.7c0,.4,0,.8-.1,1.1,0-.4.2-.8.2-1.1h0Z" fill="#70ba2b"/>
  <path d="M799.8,925.4c.9,3.8,2.6,7,7,8.1-.3,1.1-.7,2.2-1,3.2,2.7-.9,6.7-.4,10.4,3.4.8-3.6,3.4-4.1,5.5-5.2,0-1.5.3-3,.6-4.3-4-.5-8.5-2.1-12.3-4.6-.9,0-1.7,0-2.6-.1,0-.5,0-1.2,0-1.8-3.7-3.2-5.9-7.4-4.6-12.4-.7-.9-1.5-1.7-2.3-2.3-1.9,7.7-.9,8.6,2.3,16-2.2,1.1-2.8.9-3.1-.1Z" fill="#70ba2b"/>
  <path d="M1259.1,867.2c2.4-1.6,3-3.5,1.9-5.6.1.5-1.4.7,0,0-1.5.2-2.6.6-3.3,1-.2,1-.4,1.8-.6,2.7.4.6,1.1,1.2,2,1.9Z" fill="#70ba2b"/>
  <path d="M1281.2,845.3c-.7-1.7-.9-3.4-.7-5.3-5,1.2-1.8,3.9.7,5.3Z" fill="#70ba2b"/>
  <path d="M1272.6,843.1c.8-.7,1.7-1.4,2.5-2.1,0-.7-1.1-.9-1.6-1-1.8,1.9-2.1,2.9-.9,3.2Z" fill="#70ba2b"/>
  <path d="M1244.8,860c-1.3-.4-2.1-1.1-1.9-2.4-.3.9-.8,1.7-1.3,2.5,1.1.5,2.2.6,3.2,0Z" fill="#70ba2b"/>
  <path d="M1257.3,890.7c3.8-3.6,4.7-9.7,2.9-14.5-2,2.9-9.1,2.7-8.2-1.7-.8,1.5-1.6,2.9-2.5,4.4,2.7,1.5,11.4,1.5,7.7,11.8Z" fill="#70ba2b"/>
  <path d="M880.7,905.3c2.2-2.5,4.7-5.1,4.9-7.9-.2-.3-.3-.5-.5-.8-2.2,1.5-4.1,2.2-5.7,2.4,0,2.1.5,4.2,1.3,6.2Z" fill="#70ba2b"/>
  <path d="M881.7,880.4c.3-.4.6-.6,1.1-.4-.6-1.2-.4-2.6,0-4.1,0-1,0-2.4.1-3.8-.8,2.6-1.4,5.5-1.3,8.2Z" fill="#70ba2b"/>
  <path d="M880,862.7c.7,1.8,1.8,3.5,3.5,5.1.1-.9.2-1.8.4-2.6-.8-1-1.9-1.8-3.9-2.5,0,0,0,0,0,0Z" fill="#70ba2b"/>
  <path d="M886.2,891.3c.2.3.4.5.5.8,1.4-2.3,3.7-3.1,5-3.7-1.9-.6-3.4-2-4.2-4.3-.3-.2-.4-.2-.7-.4,1.7,2.5,1.6,7-.7,7.6Z" fill="#70ba2b"/>
  <path d="M881.5,860.1c-.5-2-.2-4.2,1.2-6.5-.8-.4-1.6-.8-2.4-1.2-1,2.6-1.2,4.9-1,7.1.8.2,1.5.4,2.3.6Z" fill="#70ba2b"/>
  <path d="M897.1,928c.1-.1.2-.3.4-.4-.3-.1-.5-.1-.8-.3.2.2.3.4.4.6Z" fill="#70ba2b"/>
  <path d="M893.3,900.2c0,0,0,.2,0,.3.9,1,1.9,2.2,2.8,3.1,1.1-4.1.5-6.7-3.9-4.3.3.3.6.6.9,1,0,0,.1,0,.2,0Z" fill="#70ba2b"/>
  <path d="M892,869.8c-.4,0-.7,0-1.1,0-.3.3-.7.5-1,.8,0,.4.1.8.3,1.2.6-.7,1.2-1.3,1.9-1.9Z" fill="#70ba2b"/>
  <path d="M893.3,936c.7-1.1,1.7-1.9,2.9-2.4-.9-.9-1.2-1.9-1-3-1.3-1.9-2.7-3.7-4.4-5.1-2.6,5.4,1.2,7.2,2.5,10.5Z" fill="#70ba2b"/>
  <path d="M850.8,883.9c0,.2-.2.2-.2.4.2.1.4.2.6.3-.1-.2-.3-.5-.4-.7Z" fill="#70ba2b"/>
  <path d="M879.8,916.1c.2.2.4.4.7.6.2-.5.5-1.1.6-1.5,0-.2,0-.4,0-.6-1.1-1-1.9-1.8-2.3-2.2-.4.9-.8,1.9-1.3,2.8.8.3,1.6.9,2.4,1Z" fill="#70ba2b"/>
  <path d="M821.3,945.5c.2.1.3.2.5.4,0-.1,0-.3,0-.4-.2,0-.3,0-.5,0Z" fill="#70ba2b"/>
  <path d="M819.7,919.5s0,0,.1,0c2,.5,1.1-.2-.1,0Z" fill="#70ba2b"/>
  <path d="M824.6,921c-.3.3-.6.5-1,.8.5.4,1,.8,1.4,1.2,0-.7-.3-1.3-.4-1.9Z" fill="#70ba2b"/>
  <path d="M1233,888.6c-1.9,5.1-3.6,3.1-1.1,6.9,3.4-4.1,4.6-2.3,1.1-6.9Z" fill="#70ba2b"/>
  <path d="M901.4,968.5c-.8-.7-1.6-1.6-2.1-2.7-1,.7-1.9,1.5-2.5,2.6,1.5.1,3.1.1,4.6.1Z" fill="#70ba2b"/>
  <path d="M871.8,889.8c-2.6,6.4-8,1.3-11.2,6.5.2,1.1.5,2.1.7,3.2,2.7,2.2,2.8,4.5,1.4,6.3.6,2.7,1.2,5.4,1.9,8.1.9-1.7,2.9-2.9,5.9-3.2-.4-1.5-.6-3-.4-4,5-.1,6.2,1.6,6,4.5.7.2,1.5.4,2.3.7,0,0,0,0-.1-.1-.6-1.1-.4-2.3.1-3.4-2.4-3.8-5.4-8.1-5.2-12.3,0-.7.1-1.2.2-1.8,0-.5,0-1.1.2-1.5,1.1-7.7,3.9-8.2-1.7-22.2-.5-1.2-1.1-2.2-1.7-3.3-1.3.2-2.7.3-4.4.2-.2,0-.4.1-.5.1.2.8.4,1.7.5,2.3-1.7.5-3.3,0-4.9-.9-1.1.6-2.2,1.3-3.4,2.2,1,2.9,2,5.6,3.3,9.3-2.3.1-4.9-.3-6.9.3,1.3,2.6,2.7,5.2,4,7.8,5.2-5.1,9.1-7.1,13.9,1.2Z" fill="#70ba2b"/>
  <path d="M855.7,892.8c0-.2-.2-.3-.2-.5-.6.3-1.2.7-2,1,.5.2.9.6,1.3,1,.1-.6.4-1.1.9-1.5Z" fill="#70ba2b"/>
  <path d="M960.4,883.5c-.5.9-1.3,1.4-2,2.1.8,1.2,1.5,2.5,1.6,3.9.3,3.3.5,4.5.8,4.7.2-.2.4-.4.5-.5.6-1.4,1.3-4.3,2.1-1.5.7-.3,1.4-.6,2.1-.5.2,0,.4.1.6.2,3.8-2.9,10.9-1.4,14.5.6-1.2,2.5-4.5,6.6-8.2,8.7,2.3-.2,4.9-.3,7.6-.2.7,0,1.4,0,2.2.1,8.1.5,15.4,2.5,12.6,6.2-.7,1-1.4,1.7-2.1,2.5,1.2.9,2.5,2.1,3.9,3.6,1.2-5.3,9.1-5.6,11.7-9.9-21.7,7.4-12.2-25.2,1.2-1.8.7-.9,1.4-1.8,2.2-2.7-.6-4.4.9-11.2,1.8-14.4-.2-5,1.3-9.9,3-14.9-3.1-.8-5.2-3.7-6.8-7.3,0,0,0,0,0,0-.2,3-.7,5.7-1.5,8,4.8,2.6,6.9,9.4,4.4,14.1.1-.2.2-.5.3-.7,0,.2-.2.4-.4.7,0,.1,0,.2-.1.3,0,0,0-.2.1-.3-4.8,9-8.6-.5-8.8-4.8,0-1.1.4-2.5,1-3.9-1.4,1.2-3.1,1.6-5,1.3-3.3,4.4-7.6,8-8.8,5-2.4-5.8-5-11.9-7.6-18.2-.2-.4-.4-.9-.6-1.3-.5,2.3-1.5,3.5-2.8,4.2,0,0-.1.2-.2.3-.2.4-.6.8-.8,1.2,2.9,4.9,1.8,13-4.7,10.8-2.3-.8-4.2-2.4-5.8-4.3-2.1.2-3.4-.6-4.4-1.8-.6,3.1-4.1,4-7.5,4.6,3.1,1.5,5.7,2.9,3.9,6ZM997.3,883.3c.5,6.2-3,11.6-9.4,12.6-.4-.9-.7-1.5-.9-1.9.3.7.9,1.9.9,1.9-4.1-8.6.3-12.9,9.4-12.6Z" fill="#70ba2b"/>
  <path d="M926.8,895.2c.1,0,.2,0,.3,0,0-3.2.7-6.1,6.2-7.6,1.5-1.2,1.9-1.5.4-3.7-7.6,2.1-11-1-12.7-5.9-2-1-3.9-2.2-5.6-3.4-.6,1.2-1.2,2.5-1.8,3.7.3,2.4,6,15.3,13.2,16.9Z" fill="#70ba2b"/>
  <path d="M937.2,902.6c1.4.9,3.8,1.6,6.4,2.2,0-.2.2-.5.2-.5.3.2.6.5.8.8,1.7.4,3.4.8,5.2,1.3,0-1,0-2.1.2-3-4.1.2-9.6-2.8-9.6-9.3-5.5,1.6-3,5.6-3.7,8.4.1,0,.2,0,.4.2Z" fill="#70ba2b"/>
  <path d="M874.9,928c0,0,0,.2-.1.3,2.3,1.4,4.7,2.9,7,4.2,0-.7.1-1.4.3-2.1-2.2.2-4.4-2.3-7.1-2.4Z" fill="#70ba2b"/>
  <path d="M944.1,887.4c-.3,1-.9,2-1.1,3.1,3.1.8,8.4,1.3,11.8,3.5-3.5-3.3-7.3-5.9-10.7-6.6Z" fill="#70ba2b"/>
  <path d="M877.7,921.6c-1.3-.8-2.5-1.8-3.5-3.2-.4.3-.8.6-1.2.8.6.6,1.2,1.1,1.9,1.9-1.2.8-2.5,1.5-3.7,2.3.4.4.8.9,1,1.2,1,0,2,.1,3.1.2.9-1.1,1.7-2.1,2.5-3.3Z" fill="#70ba2b"/>
  <path d="M904.6,954.7c.2.2.2.4.4.7,2,0,3.9,0,5.3.4-.5-.9-1.8-3.9-3.5-7-2-.5-3.9-1.5-5.2-3.1.8-.5,1.7-1,2.5-1.4-.4-.6-.8-1.2-1.2-1.8-1.3,1.4-2.8,2.5-4.3,3,0,1.5,0,3,0,4.4,2,1.2,4.1,2,6.2,5Z" fill="#70ba2b"/>
  <path d="M958.2,864.9c-.2,0-.4,0-.6-.1,0,0,0,0,0,0,.2,0,.4,0,.6,0Z" fill="#70ba2b"/>
  <path d="M958.1,897.3c-.6-.7-1.3-1.3-2-2,.7.7,1.4,1.4,1.6,2.4.1-.1.3-.3.4-.5Z" fill="#70ba2b"/>
  <path d="M959.8,908c.1,0,.4-.2.5-.2,0,.2,0,.4,0,.6.6.4,1.2.8,1.8,1.2.3-.4.7-.8,1.1-1.1.1-.9.6-1.4,1.3-1.6.2-.3.4-.7.5-1-.9-1.3-2.3-3.1-4.2-5.2-4.5,0-7.9.5-4.7,4.8,0,.5,1.7,1.5,3.5,2.6Z" fill="#70ba2b"/>
  <path d="M962.2,866.2c0-1.2,0-2.5.2-3.8-.5,1.5-1.5,2.1-2.8,2.1.2.2.4.4.6.7.8.2,1.4.5,2,1.1Z" fill="#70ba2b"/>
  <path d="M890.1,913.8c-1.4,1-2.1,1.7-2.7,2.6.4.5.8,1,1.2,1.5-.5-.9-.1-2.2,1.5-4Z" fill="#70ba2b"/>
  <path d="M903.7,914.9c-.2,0-.6-.1-1-.2,0,.5.2,1.1.2,1.5.2-.5.5-.9.8-1.3Z" fill="#70ba2b"/>
  <path d="M906.2,907c-3.3.6-3.9-.1-3.1-1.3-.9-.6-1.9-1.2-2.6-2.1.2.4.6,2.4,1.1,4.6,1.8,1.3,3.8,2.5,5.8,3.6,1.1-.6,2.3-1.2,3.6-1.7,0,0,0,0,0,0-.1-.6,0-.3,0,0,0-.5-.2-1-.2-1.6-.8,0-1.8-.4-2.8-1.3-.6,0-1.1,0-1.7-.2Z" fill="#70ba2b"/>
  <path d="M908.7,922.8c.1-.5.2-.8.4-1.2-1.8-1.3-6.1-1.5-10.3-1.6,1.6,1.6,2.7,3.3,3.3,4.9,2.3-1,4.7-1.6,6.7-2Z" fill="#70ba2b"/>
  <path d="M903.6,893.2c1,1.4,2.2,2.6,3.4,3.7.4-.6.9-1.1,1.5-1.6-1.3-1.5-2.6-3-3.7-4.6-.4.1-.8.2-1.2.2,0,2.7.2,2.5-3,1.6-1.2,3.3,1.5,4.4,3.1.7Z" fill="#70ba2b"/>
  <path d="M911.2,957.3s0,0,0,0c0,0,0,0,0,0,0,0,0,0,0,0Z" fill="#70ba2b"/>
  <path d="M891.4,919.4c-1-.2-1.8-.5-2.3-1,.9,1,1.7,2,2.5,2.9-.2-.6-.1-1.3-.2-1.9Z" fill="#70ba2b"/>
  <path d="M894.2,945c.3.7.7,1.1,1.1,1.6-.1-.4-.2-.9-.2-1.3-.3-.1-.6-.2-.9-.3Z" fill="#70ba2b"/>
  <path d="M1659.7,287.8c-.2,0-.5,0-.8.1,0,.4,0,.9-.2,1.4.6,0,1.2,0,1.9-.3-.5-.4-.7-.8-1-1.2Z" fill="#70ba2b"/>
  <path d="M1489.3,628.2c-.4-.1-.7-.4-1.1-.5-.6.1-1.4.3-2.5.5,1.5-.3,2.5-.1,3.6,0Z" fill="#70ba2b"/>
  <path d="M1774.6,5.9c5.9-6,8.4,6,10.4-5.9h-12.6c.3,3.8-1.6,9.7,2.2,5.9Z" fill="#70ba2b"/>
  <path d="M1598.6,491.6c.3.1.6.2.6.2-.2,0-.3-.2-.5-.2,0,0,0,0,0,0Z" fill="#70ba2b"/>
  <path d="M1213.2,877c1.7-.2,2.8-.7,3.5-1.4l-3.5,1.4Z" fill="#70ba2b"/>
  <path d="M21.8,828.6c-.1.3-.2.6-.2.6,0-.2.2-.3.2-.5,0,0,0,0,0,0Z" fill="#70ba2b"/>
  <path d="M771.6,963.3c.1.6.2,1.1.3,1.7,1.1-1.1,2.3-2.2,3.4-3.4-3.7-3.5-7.3-11.5-7.8-15.1-.2,1.8-.5,3.5-1,5.2-2.2-.6-3.9-1.4-5.3-2.4.1,2.1.3,4,.6,5.3,2.6,3.1,5.2,6.1,7.8,9.2.6-.2,1.2-.5,2-.6Z" fill="#70ba2b"/>
  <path d="M1759.5,1.3c.4-.5.8-.9,1.2-1.3h-15.2c-.2.6-.4,1.2-.8,1.9,3.1,2.2,11.8.8,14.7-.6Z" fill="#70ba2b"/>
  <path d="M129,929.4s0,0,0,0c.2-.5.4-1,0,0Z" fill="#70ba2b"/>
  <path d="M1699.4,384.3s0,0,0,0c-.5-.2-1-.4,0,0Z" fill="#70ba2b"/>
  <path d="M1777.8,132.3s-.1,0-.2,0c.1.2.2.4.3.6,0-.2,0-.5-.1-.7Z" fill="#70ba2b"/>
  <path d="M1735.8,255.3c-1.2-.9-2.4-1.6-3.2-2.2-1.6,1.3-1.9,2.6-1.1,4,1.4-.5,2.8-1.1,4.3-1.9Z" fill="#70ba2b"/>
  <path d="M1690.6,472.3s0,0,0,0c0-.3,0-.5,0-.6,0,.2,0,.4,0,.6Z" fill="#70ba2b"/>
  <path d="M1763.6,120c-.3,0-.5.2-.8.3.2,0,.5.1.7.2,0-.2,0-.3.1-.5Z" fill="#70ba2b"/>
  <path d="M1719.9,249.3c-.3,0-.6.1-.9.2.2.2.4.4.6.6,0-.3.3-.5.3-.8Z" fill="#70ba2b"/>
  <path d="M1714.6,247.4c-.4-1-1-2.2-2.2-3.8-3.1.3-9-1.9-14.6-4.3l-.2,7.2c2.1,0,10.5,3.9,14.8,3.9.8-1.2,1.5-2.1,2.2-3Z" fill="#70ba2b"/>
  <path d="M1726,261.4c-.5-.4-.2,1.4,0,0h0Z" fill="#70ba2b"/>
  <path d="M1706.6,279.8c6.8,1.3,13.9.9,16.9-5.5-2.8,2.7-7.6,2.7-11.2,1.7,1.6-4.3,4-8.6,8-10.2-1.8-1-4.8-2.7-4.8-2.7-1,1.7-2.3,2.4-4,2.7.7,5.2,0,12.8-5,14Z" fill="#70ba2b"/>
  <path d="M1727.9,257.9c-.3-.6-.5-1.3-.6-2.3-.2-1.6-.6-2.7-1-3.6-1.1.4-2.3.8-3.8,1,1.3,1.3,2.6,2.6,3.8,4,0,.8.6,1,1.6.9Z" fill="#70ba2b"/>
  <path d="M1751,116c-.2.3-.5.3-.8.4.5.1.9.3,1.4.4-.2-.3-.5-.6-.6-.9Z" fill="#70ba2b"/>
  <path d="M1742.8,33.4c.4,0,.9,0,1.3,0-.5-.7-.6-1.2-.9-1.7,0,.6-.2,1.1-.4,1.6Z" fill="#70ba2b"/>
  <path d="M1743,29.4c.6-1.5,2.5-2.6,4.5-3.8-2.8-.8-5-1.3-7.1-1.7.4.6.8.9,1.2,1.6.7,1.5,1.2,2.8,1.4,3.9Z" fill="#70ba2b"/>
  <path d="M1725.4,265.2c0,0,.1,0,.2,0,.4.2.3.5.6.8-.2-.7-.4-1.3-.4-1.9,0,.3-.2.8-.4,1.2Z" fill="#70ba2b"/>
  <path d="M1730.6,51.6v.2s0,0,.2,0c0,0-.1-.2-.2-.3Z" fill="#70ba2b"/>
  <path d="M1066.3,946.7s0,0,0,0c.3-.3.4-.4.6-.5-.2.2-.4.3-.6.5Z" fill="#70ba2b"/>
  <path d="M1455.5,676.3c1.4,0,2.3.3,3,.7,0,0,0,0,.1,0,0,0,0,0-.1,0,3.6,2.2.3,8.4,8.7,2.3-2.1-4.9,3.1-9.6,6.4-11.9-2.3,1.6-1.6-.2,0,0-5.1-.5-9.9-.6-15-.2,3.2,3.4-10.7,9-3.1,9Z" fill="#70ba2b"/>
  <path d="M1574.9,593c-1.3-3-2.1-6.4-3-9.1.2,4.2-.6,8.2-4.2,9,3.2,1.2,5.1.8,7.2.2Z" fill="#70ba2b"/>
  <path d="M1574.5,583.7c.2-.7.6-1.2.9-1.8-1.2-.2-2.5-.4-3.7-.5.1.8.2,1.5.2,2.3h2.6Z" fill="#70ba2b"/>
  <path d="M886.4,970.6s0,0,0,0c-.2-.5-.4-1,0,0Z" fill="#70ba2b"/>
  <path d="M1557.2,587.8c1.3-1,2.6-2.1,3.7-3.6,0,0,0,0,0,0-.4-2.9-.2-5.2-4.6-4.9,1.4,3.6,1.5,6.4.9,8.5Z" fill="#70ba2b"/>
  <path d="M1688.8,356.6c-.6-1.3-1.2-2.6-1.7-3.9-.6.2-1,.6-1.2,1.2.5.5,1.6,1.5,2.9,2.7Z" fill="#70ba2b"/>
  <path d="M879.5,964.1c.3,0,.6,0,.9,0,0-.2,0-.3,0-.5-.8,0-.5,0,0,0,0,0,0,0,0,0-1-.1-2.9-.8-5-1.6,1.4.7,2.8,1.4,4,2.1Z" fill="#70ba2b"/>
  <path d="M1682.9,358c1.3.3,2.5.7,3.7,1.1-.9-1.2-1.4-2.7-.6-5.2-2.6-2.6-6.4-4-10.2-4.4-1,.5-2.1.6-3.1.3-.2.3-.5.5-.8.8v.5c2.9,4.7,8.3,1.3,11.1,6.9Z" fill="#70ba2b"/>
  <path d="M1559.1,561.4c-.8.7-1.6,1.5-2.4,2.1.4.6.4,1.2.6,1.8.1-1.7.8-3,1.8-4Z" fill="#70ba2b"/>
  <path d="M1680.2,342.5c-.4-2.3-1.5-4-3.7-4.5,0,.6,0,1.1,0,1.7.2.3.4.6.6.8,1.6.5,2.8,1.2,3.1,2Z" fill="#70ba2b"/>
  <path d="M1781.3,166.2c-.3-.2-.5-.3-.6-.4,0,0,.2.2.6.4Z" fill="#70ba2b"/>
  <path d="M1776.4,171.8c4.3-1.3,7.3-3.9,5.2-5.4-.1,0-.2-.2-.3-.2.1,0,.2.1.3.2-6.1-4.2-12-.5-16.6,3.9,2.4,2.2,5.8,2.6,9,2.1,0,5.3,12.5,7.6,17.5,9.7,1.7-6.2-8.6-8.3-15.1-10.3Z" fill="#70ba2b"/>
  <path d="M1497.5,630.7c0,0,2.7,1.8,0,0h0Z" fill="#70ba2b"/>
  <path d="M735.8,991.9c7,2,8.7-11.5,11.1-17.4-6.3-2.5-8.8,12-11.1,17.4Z" fill="#70ba2b"/>
  <path d="M1528.9,642.8c-4.4-3.6-11.1-2.7-15.8-5.8-3.2-2.1-1.6-1,0,0-4.1-2.7-9.3-3.7-14-3.4-2,9,15.3,16.6,21.9,16.9,2.6.1,13-3.7,8-7.7Z" fill="#70ba2b"/>
  <path d="M1693.9,426.5c.7-.7-4.2-16-4.5-17.2-1.8,5.5-.8,8.4-6.2,5.7-1.9,8.9,1.5,13.9,10.8,11.4Z" fill="#70ba2b"/>
  <path d="M1382.2,747.9c1.8-2,.9-1,0,0h0Z" fill="#70ba2b"/>
  <path d="M1603.6,590.2c-.7-1.5-1.5-2.9,0,0h0Z" fill="#70ba2b"/>
  <path d="M1680.3,343c0-.1,0-.2,0-.3,0,.1,0,.2,0,.3Z" fill="#70ba2b"/>
  <path d="M13.7,821.1c0-3,.6-6.2,1.5-9.4.3,1.3.7,2.6,1.2,4,6.9-3,13.8-7.4,18.7-13.2,0,0,0,0,0,0-1.1,1.4-1.6,2.1,0,0,1.6,1.3,3.7,1.1,6.3-.6-.7,1.6-1.2,3-1.9,4.6-1.8.8-3.6,1.6-5,2.9-1.1,1-1.9,2.1-2.6,3.1-13.2-3.8-16.1,8.6-10.2,16,0,.2-.1.3-.2.6,0,0,.1-.3.2-.6,0,0,0,0,0,0,0,.2-.2.3-.2.5.4.3.9.4,1.4.7,3,2.9,7.7,4.7,14,3.6-4.2,3.2-7.5,13.2-2.5,17.4-2.7-3.3,6.2-9.6,10.5-11.8.6,0,1.1-.1,1.8-.3,0,.4,0,.7,0,1.1-6,3.6-19.8,13.2-6.5,15.2,0,0,0,0,0,0,0,0,0,0,0,0,6.4.9,8.9-3,9.3-7.8,1.5.8,3.8,1.3,7.5,2.6,0-.4-.3-1-.4-1.5l.3.3c.2,1.2.3,2.4.5,3.6-.4,2.2-.3,4.6.6,7,0,.2,0,.4,0,.6-.9-2.2-2.3-4.1-4.1-5.6-2.5-.2-.8,11.2,2.4,17.1-.3,1.5-.7,3-1,4.2-2,6.7-4,16.7-3,23.5-2.9,13.7-10.2,2.6-12.9,12.6-1.6,6.2,6.2,6.1,9.4,4.8-1.2,6.3-2.9,13,3.8,13.6-1.5-8.9-1-14.4,4-21.7-3.6-3.4-.7-19.5,3.8-33.4,5.8,1.9,12.3,1,18.1,2.8-3.7,1.9-13.6,4.9-14.9,7.7-4.2,9.8,11.2,4,13.8.3-.2,2.2.8,15.4,8.1,12.4,9.1-3.8,1.1-12.2-.2-16.7,2.4,1.4,4.9,1.7,7.4,1.3-1.5,2.3-2.9,6.8-2.5,9.5,7.7-5.5,11.5-3,6.3,6-2.2-1.5-4.5-2.9-6.7-4.4-2.1,7.7-7.3,15.8-4.9,19.3,4.1-4.8,16.9,0,21.5-11.4,5.6,3.2-2.8,8.1-2.3,13.8.5,5.2,6.2,4.6,8.7,1.4,3.3-4.2,1.6-12.5,2-17.4,3.7,4.7,13,3.2,17.4.7-1-2.2-2.6-4.3-4.5-6,5.3,1.3,9.4,3.7,5.6,13.7-1,2.6-1.4,4.9-1.4,7.1-.5,0-1-.2-1.5,0,1.1-4.5,1.2-7.4-3.5-8-1.8-1.2-4.3-2.3-7.9-3.1-.6,4-1.4,7.6-2.1,12.8,3.7.6,3.5-4.5,3.5-4.5,0,0,0,0,0,0,.7,1.8,1.7,3,2.6,3.7-5.6-1-4.1,11.8,2.3,8-.5.3-1.1.6,0,0,1.5-.9,3-1.8,4.5-2.8-1.8-2.1-3.3-3.5-4.6-4.3.8,0,1.6,0,2.4-.5.7,1.6,1.5,3.1,2,3.7,0,0,0,0,0,0h0s0,0,0,0c0,0,0,0,0,0,0,0,0,0,0,0h0s0,0,0,0h0s0,0,0,0h0s0,0,0,0c.5.7.7.9.8,1,0,0-.5-.6-.8-1,1.3,1.6,3.3,2.4,5.4,2.5,2.5,2.2,6.3,3,11.1,1.5,1.8-.5,3.1-1.4,4.3-2.3-.8,1.3-1.8,2.4-3.2,3.1.9,1.1,2.6.2,4.6-1.4,0,.9.1,2,1.1,3.2,0,0,0,0,0,0,.9,1.1.5.6,0,0,1.6,2,3.7,2.2,5.9,1.7-.3,1.1-.7,2.1-1,3.1-1.9-.2-3.5,0-4.9.3-6.7-6.1-18.9-11.7-15.9,2.4-4.1-4.2-13,3.4-9.4,6.1,4.7,3.5,10.2,2.9,14.5-.7-1.5-1.4-2.9-2.9-4.2-4.4,3.8-1.1,6.9,1.2,10.5,2.4,0,1.4,0,2.9.4,4.8.1,0,.2,0,.4,0-.5.1-1,.3-1.5.6-8.6,4-1.3,13.1,6.2,8.2,1.4,4.3,4.5,12,8.2,14,8.3,4.5,2.6-15.3,1.3-17.3-1.5,2.9-5.1,4.8-5.3,8.5-1.5-6.7-.8-13.6.8-20.5.7-1.5,1.2-3.1,1.3-4.3,0,0-.1,0-.2,0,.4-1.4.8-2.8,1.2-4.2,3.6-1.9,6.9-5.6,7.8-8.2-3-4-4.2,3.8-3.4-5.1-.2.2-.5.4-.8.6.6-2.3,1.1-4.5,1.4-6.7.5.2,1,.3,1.6.4.8,1.3,1.6,1.8,2.3,1.7.1,0,.2,0,.3,0-.1,0-.2,0-.3,0-.8.2-1.5.4-2.6.3.2,3.2,2.4,4.3,6.8,3-1.4,2.1-2.9,4.2-4.3,6.3.7.9,1.3,1.3,2,1.4-1.8,2.9-4.2,5.9-5.3,8.9-3.3,9.2,9,10.1,10.3.7,0,0,.2,0,.3.1-.4,2,.4,4.2,1.5,5.8-.8-.8-1.6-1.4-2.4-2-.6,1.1-1.6,3.4-2.6,6-1.5-1.7-3.6-2.6-6.8-2,1.1-.2,1.8-.4,0,0-3.7.8-1.5.3,0,0-8.7,1.9-.2,10.8,5.4,14.4,0,.1.2.2.4.2,1,.6,1.8,1.1,2.5,1.2,0-.3.1-.6.2-.8,1-.2,2-.4,3.5-1.1h0s0,0,0,0c7.2-3.6,5-10,1.1-14.6,1.1.8,2.2,1.2,3.2.3,1.4-1.3,2.3-2.8,2.9-4.4,4,1.1,7.9,1.6,7.8-.3,0-3.7-1.4-6.6-4.5-8.7.2-1.2.8-1.9,1.5-2.6,1.6,2.1,3.8,1.3,5.6-.8,1.4,2.8,3.3,2.9,4.8,1.6,1.8,7.5,5.7,17.4,11.2,7.5-.8,1.4-1.5,2.8,0,0,1.6-2.8.8-1.5,0,0,4.3-7.9-2.8-11.9-9.3-13,0-2.9-1.1-6.2-4.3-9.6-.5.7-.9,1.6-1.3,2.3-.2-.3-.4-.5-.7-.8.4-1.3.8-2.7,1.2-4,1.4,1.8,2.8,3.6,4.7,4.9,0,0,0,0,0,0,0,0,0,0,0,0,2.1,1.4,3.9,1.6,5.3,1.3,1.2.4,2.4.7,3.6.8-.3-1.1-.4-2.2-.4-3.2.4-.8.5-1.8.3-2.7.7-3.2,2.5-5.8,3.5-8.4,3.2,1.8,6.7-.6,10.1-2.4,1.5,4.9,2.2,9.6-.8,12.3,9.7,1.2,6.6,26.3,5.8,31.7-3.7-5.2-8.2,10.1-9.6,9.8,3.4,9,2.3,2.2,8,6.1-4.6,6.7-6.5,14.6-12.3,17.7,1.6,2.6,26.8-2.8,18.3-14.5,2-6.1,4.7-7.1,8.1-3.1.8.6,1.5.6,2.2.7-4.9,2.4-9.1,7.5-.7,7.9-5.2,7.1-7.4,14.6-14.3,16.9-.2,0-.3.1-.4.2,3.5-1.9,6.6-5.6,7.5-8.1-4.1-1.5-23.7-1.7-16.2,7.4,0,0,0,0,0,0,.9,1.1.5.6,0,0,2.1,2.5,5,2.4,7.9,1-4,2.9,6.7,9.8,9,10.3-2.6-.6-8.6-.6-10.1,2.3-1.8-3-.8-5.6.6-8.7-15.5-3.2-15.7,15.7-.9,9.7-.6,9.5,14.7-4.5,15.7-5.9,5.6-7.3-2.7-12.4,1.4-19.9-.7,4.4,4.2,5.4,9.2,5.1,0,.4-.2,1,0,1.4.5-.5.9-.9,1.4-1.4,3.2-.3,6.2-1.1,7.4-1.8-.5-.5-1.3-1.8-2.3-3.4,2.7-2.7,5.4-5.5,8.1-8.2,2.9,0,5.6-2,6-6,1.2-1.2,2.1-2,2.9-2.7.6,0,1.2.2,1.9.2,1.1,4.9,4.4,9.5,10,8.6-.3,1-.7,2.1-.6,3.6.1,7.6,10.3,6,10.3,11.7-5-3.2-7.8-2.7-8.6,1.5,11.9,6.3,14.8,4.2,20-6.6h.7c4.5,14.7,7,17.2,9,13.1.7,1,1.9,1.8,3.8,2.2,1.3.5,2.7,1,4,1.6-2.8,1.1-5.6,2.2-8.5,3.4,11.1,6,2.2-.4,4.4,6.9,2,6.6,8.2-.1,10.6,1.2.6-1,1.7-4.8,2.7-7.9.7.3,1.4.6,2.2.8.3-2,.4-4.1.3-6.1,2.6-1.9,5.1-3.8,7.7-5.8.1,0,.2.1.3.2-.2,1-.4,1.9-.7,2.9,0,0,.2,0,.5,0-.7,0-1.5.2-2.3.5-9.9,4,6.4,13.8,10.9,14.3,1-5.7-1.2-14.5-7.3-14.9,2.3-.1,6.1-.3,7.8-.4l.8.8c-.2,8.2-2.6,12.8.3,22.4,2.2,7.4.8,10.5,8.8,12.6,8.6,2.2,7.5,8.4,13.9,8.7-4.8-8.4,1.2-13.9,5.5-20.3.7-.4,1.5-.9,2.2-1.7,4-4.6,1.4-8.6,1.9-12.8.3-.8.5-1.7.8-2.5.4,5,0,16.6,4.5,17.6.7-1.5,1.4-3.1,2-4.6.3.3.5.6.8.8,9.7,7.6,9.4-2.5,2.4-8.1.6-1.4,1.2-2.7,1.8-4.1,1.9-.8,3.9-1.5,6.1-1.9-1.8-4.4-5.5-8.9-10.5-9.5.1-.2,5-1,8.4-1.9,0,.5,0,.9,0,1.4.9-.2,1.5-.2,2.2-.2-1.2,3.6-.4,2.3,1.2,0,1.1.1,1.8.6,2.3,1.1-1.9,4.4-2.6,9.6,2.1,9.5.2.8.5,1.6.9,2.2.7,1.2,1.6,1.7,2.6,1.9-4.8,15.7-3,32.7-21.2,41-.1,0-25.2,5-10.8,9.6,5.1,1.6,16.9-7.2,13.3-8.4,10-6.4,14.4,7.4,26.5,1.4-1.9-4.6-6.7-10.7-12.5-9.5,2.1-4.7,4.3-9.3,6.4-14-1.6-2.8-2.1-5.7-1.8-8.8,6.8,3,13.7-7.9,8.6-13-.3-.3-.5-.5-.8-.8-.6-.6-1.2-1.2-1.8-1.8.1-.3.3-.7.3-1,0-2.9-1-5.5-2.9-7.9.1-2.7,0-5.4-.2-7.6.2-.9.5-1.8.7-2.8,1.9,1.9,6.6,3.3,8.7,2.5,1.5.1,3,0,4.4-.3.5,2,1.2,3.8,2.2,5.3-3.3-.6-6.9-2.3-11.6-3.5-1.8,14.6,8.9,11.2,14.6,10.1,1.2-.2,2.4-1.6,3.6-3.1,1.2,0,2.6-.2,4.2-.6-5.3,4.2-9.2,9.3.2,10.7,10.3,1.5,10.5-9.6,8.2-16.2-.5.3-1.3.7-2.3,1.3.2-.3.5-.7.7-1,5-2.1,8.9-12.2,11.6-13.9-.2,5.4,8.8,11.1,13.5,11-3.8,3.3,5.4,5.2,8,4.2-1.1,2.9-17.9,5.4-6.5,11.2,1.7.9,9.1,1.2,9.7,1.7-.8,1.6-3.1,6.4-3,4.3,0,1.8-5.1,3.2-3.9,7,1.5,4.9,7.9,2.8,10.4.5,6.1-5.5,2.7-13,1.7-19.5-1.1.6-2.1,1.4-3.1,2.3-1.2-5.8,6-5.7,6.1-11-2.3,0-4.8.2-7.1,0,2-4,2.7-1.8,6.5-2.3-.4-1.6-1-3.2-1.7-4.6,7.9,4.1,4.8-.8,7.5-1.6.1.2.2.5.4.7.6.9,1.1,1.5,1.7,2.2-1,4.3-2.5,3.8-4.3,7.1-1.8,3.2,5,11.1,5.6,10.2,1.2,2.4-4.1,1.6-5,4.5-1.4,4.4,4,4.9,2.5,9.8-3.1-4.5-5.4,1.1-5.5,5.8-4-7.7-7.7-1.1-5.6,4.7-4.1,2.7-18.7-6.8-18,3,.4,5.1,4.1,3.2,4.3,8.8.3,7.1,11.6,4.7,14.1.5,0,7.3-6.1,2.6-8.9,7.4-4.4,7.5,0,16.1,7.8,6.1-.6,5.3.7,5.2,4.4,8.8-.2-2.5-.4-5.2-.4-8,2.1,4.1,10.4,8.7,13.5,9,1.1-6.7-2-17.8-10.9-14.3-1.2.5-2,1.1-2.5,1.7.3-5.9,1.7-11.8,5.8-16.1,6.1-6.3,9.4,1.6,14.6,2.5-3.9,2.7-4.8,6.3-2.6,10.8,6.5.2,10.9-4.6,11.4-10.8-1.6,0-3.2,0-4.8,0,.5-1.9,7.5-4.2,8.9-7.7,6.4,2.6-9.3,10.6-.4,16.9,11.3,8,7.1-20,5.1-23.3-11.3,8.3-2.9-3.5-7.1-7.1-2.9-.3-5.7-.9-8.5-1.5-3.9-3-3.9-6-7.3-8.9-1.4-2.9-2.8-11.7-.6-14.7,2.2,1.2,4.2,1.4,5.9.6,0,0,.2,0,.2.1.1-.2.3-.4.4-.6,1.8-1.1,3.3-3.2,4.3-6.1,1.4.7,3.3.8,6,.3,2.1-.5,3.5-1.2,4.6-2-2,4.5-3,9.3,2.9,8.7-4.9,4.6,2.8,8.4,9.4,5.7.3,2.3,1.7,4.5,4.1,4-.1.4-.2.8-.3,1.2-1,1.5-.7,3.6.4,5-22.3,0-2,21.5,1.3,1.2,5.2,3.7,8.7-3.2,8.2-9.6,2.3.6,4.8.3,6.4-1.4-.1-.2-.4-.5-.5-.7.5-.4,1-.8,1.6-1.6,0,0,0,0,.1.1.4-.6.7-1.4,1.1-2.1,0,0,0,0,0-.1,2.4-4.7,6.2,2.7,7.2,4.4.3.6.4.9.6,1.4-.7,1-1.6,1.9-2.8,2.5.7.9,2.1.4,3.6-.7,1,3.1-.3,4.1-2.6,4-3.3-2.1-6.7-3.2-9-2.4-.2,0-.5-.2-.7-.2,0,.2,0,.3,0,.4-1.5.8-2.1,2.9-1.7,6.4-1.1-1.2-2.2-2.3-3.3-3.1-.4.8-1.1,2.3-1.8,4.1-3.5,1.3-6.4,5.1-4.1,6.8.5.4,1.1.5,1.6.8-1.2,5.5-.6,10,6.9,6.2,3.7-1.8,4.9-4.4,4.7-7,.4-.3.9-.5,1.2-.8-.7-.6-1.3-1.3-1.9-2-.3-.9-.8-1.7-1.3-2.5.8-.1,1.5-.1,2.3,0,1.3,1.5,2.8,2.8,5,3.4,1.8.5,2.9.2,3.8-.5,1.8.4,3.7.4,5.8-.5-1.6,5.9-3.5,3.3-8.2,5.5-8.6,4-1.3,13.1,6.2,8.2,1.4,4.3,4.5,12,8.2,14,8.3,4.5,2.6-15.3,1.3-17.3-1.5,2.9-5.1,4.8-5.3,8.5-1.4-6.1-.9-12.4.4-18.7,3.4,1.2,11.5-8.5,17-15,.5.1,1,.3,1.7.2-2,4-3.2,8.7,0,10.2,0,.5.3,1,.4,1.5-5.5,3.1-12.7-2.2-11,4.2-2.7.6-1.4.3,0,0,0,0,0,0,0,0-9.6,2.5,4.3,14.6,8.6,15.8,1.5-4.3,1.4-10.9-1.7-14.2,1.9-.9,3.5-2.3,5.1-3.9.9,1.3,2.1,2.3,3.2,2.3-2.2,6.7-2.9,13.9,6.1,9.4,8.5-4.3,4-12.3-1.1-16.8.2-1.5,0-3.1-.6-4.7-.1-2.4-1-5.9-2.3-8.3.4-.7.7-1.5,1.1-2.3.6,0,1.1-.2,1.7-.2.8,1.5,1.9,3.4,2.8,2.8.2,1,.4,1.8.7,2.5.4,4.5,2.9,8.2,7.6,9.6,2.6.8,4-.4,5.3-2,1.9,4.8,4.6,8.2,8,4,.5.7,1,1.4,1.5,2.2-4.1.4-6.8,2.2-4.2,6.8,0,0,0,0,0,0,0,0,0,0,0,0,.5.8,1,1.4,1.7,1.8-2.5.6-3.6,2-3.8,3.5-3.1,1.1-4.9,4-4.3,9.5,4,.7,7.3-.7,9.7-3.2,3.2.6,7.1-1,10.1-7.5.4.3.6.6.9.9-.8,1.6-1.5,2.9-1.9,2.8.4,1.1.8,2,1.1,2.7-.7.9-1.4,1.9-1.9,3.2-1.9,5.3,1.4,7.8,4.8,7.2-2.3,4.5-4.5,8.7-8.3,10.8.6.9,4.1.8,8-.2,0,.9-.1,1.8.1,2.6,2.5,8.5,17.6-2.1,11.2-9.6.2-.3.3-.6.4-1,2.5,4.2,4.8,8.3,8.1,11.9,4.7-10-4.8-10.5-7.1-19.4,5.8,5.8,8.9,3,8.1-1.1,1.1,0,2.1-.3,2.8-1.5.7-4.5-1.4-7.5-4.5-9.8,1.8-.3,3.4-.7,4.3-1.2-.5-.9-1.1-1.9-1.8-2.9,1.9-.1,3.6-.5,4.8-.9-1.5-5-7.2-13.6-13.6-10,7.2-9.7-7.6,3.4,1.1-6.7,2.3-2.7,2.2-6.9,1.3-10-1.6.6-3.2,1.2-4.8,1.7,2.3-17.3,14.5,10.7,21-4.5-.6,4.9-2.3,10.8,0,15.5,4.7,9.5,17.9-7.5,7.3-12.2-2.4-1.1-4.9-2.2-7.3-3.3,0-.2.1-.3.2-.5,1.5,2.9,13.5,2.2,10.8-3.4.3,0,.5.1.8,0,3.8-.3,4.5-2.3,3.7-4.4,1.5-.5,2.6-1.6,2.7-4.9-1.8,0-3.7,0-5.5,0-.1-1-.3-1.9-.4-2.9,2.8,1.2,3,0,5.3.5-2.4-2.7-3.4-5-3.8-7.3h.1c1.2.6,2.2,1.1,3.2,1.5.8,3.2,4,6.7,7.4,4.1,1.4-1,2-2,2.3-3,.3-.1.5-.3.7-.5-.2,3.2-.6,6.6,0,9.7-4.3-6.4-9.6,4.7-1,9.7,1.3-2,1.9-4.2,2-6.6,3.6,7.7,20-8.9.4-14.1,1.3-1.4,2.5-3.5,3.9-6.2.7.3,1.4.7,2.1.9,5.8,18,8,14.4,10.7,3.1,7.3.6,16.5-2.1,16.4,4.9-.2-.5-.5-1-.2-.3.1.2,0,.2.2.3,0,.2.1.3,0,.6,0,0,0-.1.1-.2,4.2-5.4,7-11.8,5-17.6,3.9-2.3,4.6-5.4,3.7-8.5.7-.9,1.4-1.7,2.1-2.7.8-1.1,1.5-1.7,2.2-2.3.1,11.4-2.5,21.6-5.2,33.1,0,0,10.3-.6,10.4-.5-.3-1.3-.5-3.2-.6-5.3,1.4.9,3.1,1.7,5.3,2.4.5-1.7.9-3.4,1-5.2.5,3.6,4.1,11.6,7.8,15.1-1.1,1.1-2.3,2.2-3.4,3.4-.1-.6-.2-1.1-.3-1.7-.7.2-1.3.4-2,.6-2.6-3.1-5.2-6.1-7.8-9.2,0,6.9-1.6,11.2-.8,17.5,0,.9.1,1.7.5,2.5.2,1,.3,2,.6,3.2.8,2.7,1.1,4.9,1.6,6.6-1.6,4.2,3,10.8,5.7,8.4.8-.7,1.3-1.5,1.8-2.3,8.2,2.3,7.3,8.3,13.6,8.6-3.8-6.7-.7-11.6,2.9-16.5,2.8,9.4,10.8,2.5,11.4-3.5.2.1.4.3.6.4,3.1-7.1,6.2-14.2,9.3-21.2-5.6-2.5-5.6,6.1-9.9,6,1.9-1.5,1.3-3.5-.3-5.1,1.8-5.6,3.5-11.2,5.3-16.8.8.6,1.8,1.2,3.3,1.6,1.9.5,3.1.6,4,.4-.7,1.5-1,3.8-.7,7.2.3,0,.5,0,.9,0-4.2,2.9-6.1,6.3,1.4,8.7-1.5-.5-3.1-1,0,0,3.1,1,1.6.5,0,0,2.1.7,3.8.7,5.2.2.2,1.4.5,2.7,1.2,3.8,2.3,3.7,6.3,1.5,8.1-1.5.4.4.7.7,1.2,1,8.1,5,2.8-15.2,1.4-17.2-2,1.5-3.6,4-4.5,6.6-.2-.3-.3-.7-.6-1-.8-3.1-.2-5.4.4-7.7,1.5-.8,2.7-2.1,3.8-3.5,3.4,1.7,6.7.7,9.6-.6,2.8,3.3,7,6.3,9,6.9,1.2-3.4,1.4-8.1,0-11.6.9-2,1.8-4,2.7-6-5.1-1.6-9.7-4.1-14.3-5.1-1.6-3.4-4.2-6.8-6.3-9.3,1.8-2.8,2.8-5.8,3.3-8.8.8-.4,1-.5,0,0,0,0,0-.1,0-.2,5.2-3.2,4.4-8.1,1.5-12.2.2-.9.5-1.9,1-2.9,1.1.8,2.2,1.6,3.1,2.4.8,1.2,1.5,2.4,2.2,3.5.4,1.6.3,3.3-1.3,5.6-1.7,2.3.3,13.2,4.9,10.4,2-1.3,3-3.2,3.3-5.2.2.3.4.7.7,1,1.2-.6,2.4-1.3,3.6-1.9,2.3,1.9,5.5,1.9,8,.8.5,5.5.8,11.9.9,16.8-4.4,1.9-4.5,11.1-.7,10.6.1,0,.2,0,.4-.1-1.3,16.1-1.1,6.5-12.3,15.7-8.3,6.8,5.9,13.3,12.1,1,.2,1.3.4,2.7.7,4,1.3-4.5.8-13.9,1.1-21.3,2.7-.8,4.7-2.5,6-4.7.9.9,2.2,1.4,3.8.9,2.2,1.5,4.5,3,6.7,4.4-7.7-3.3-16.3,7.7-8.9,9.7,1.7.5,7.3-.3,11.1-1.7,0,0,0,.1,0,.2,1.4,4.8,6.4,3.4,9.5,1,2.5,3.6,4.2,8.3,5.7,12.7-5.7,2.1-8.8,6-.7,11.3-.4,0-.7.2-1,.2-.4-.6-.8-1.2-1.3-1.7-11.2,7.4-2.2,19.2,1.9,11.8,4.2-1.4,6.9-4.8,7.5-9.2,1,.4,1.7,0,.8-2.3-.6-1.4,0-2.5.8-3.7,1.4-.6,2.7-1.2,3.9-2.2.5,1.3,1.2,2.8,1.9,4.3-.3.5-.6.9-.8,1.6-2.3,6.5,3.1,8.9,7,6.3.7.3,1.3.3,2,0-2.8,6.2-9.1,22.5,3.4,16.3-.3.2-.7.3-1,.5.3-.1.5-.2,1-.5.7-.3,1.1-.5,1.3-.7-.3.2-.8.4-1.3.6,9-4.5,3.5-13.2-2-17.5.5-.7,1-1.7,1.5-2.9,4.2,2,10.5,4.4,14.1,3.3,9.1-2.7-9-12.7-11.4-13.2.9,3.1-.2,6.9,2.3,9.7-1.5-1-2.9-2.1-4.2-3.3.3-4.6-2.9-7-7-7.9-2-2.8-3.9-5.8-5.6-8.9,5.7.4,11.5-2.3,9.3-4.5-3.9-3.8-8.3-3.4-12.5-1.5-.5-.9-1-1.8-1.5-2.7,1-1.4,2-2.8,2.6-4.1,1.3.2,2.7.2,4.4-.2.5,1.7,1.5,3.3,3.4,4.5,4.3,2.7,4.8-1.8,4.1-6.8.8-.3,1.4-.6,2-.8,0,.4-.1.8-.2,1.1-1.3,5.4,7.6,8.2,9.8,5.8.7,0,1.3,0,2.1-.2,13.2-3,4.2-13.8,6.2-21.6.2,0,.4.2.6.2.5.5,1,.9,1.5,1.3.3,2.1,1.4,3.1,3.6,2.1,1.6.6,3.3.7,4.9.6.6.4,1.1.8,2.1,1,0,0,0,0,0,0,0,0,0,0,0,0,2.4.6,4.3-.4,5.7-2.1,2.6-.4,5.1-.8,7.7-.4-1.3-1-2.6-2.1-3.8-3.1,1.8-.6,2.9-1.3,3.6-2,.8,2.3,1.4,4.2,1,4.5,3.4,1.5,4.6,1.9,5.3,1.6,0,0,0,0,0,.1,1.7-1,3.3-1.8,4.8-2.4,1.5,7.7,5.5,14.5,3.7,20.7,3,.7,16.9-20.9,2.7-23.1,0,0,0,0,0,0,.7-.3,1.4-.6,2.1-.9,2.7,1.3,6.6,1.5,8.5.8,8.1-2.8.9,1.4,8.5,1.7-3.9,2-10.5,3.8-12.3,8.5-2.9,7.5,10.4,8,13.8,3.7,2.9-3.7.8-8.6,1.8-12.8,5.2-1.8,9.9-9.8,10.7-15.3,1.1-.2,2.3-.8,4-2,0,0,0,0,0,0,0,0,0,0,0,0,1.1-.8,1.9-1.7,2.5-2.5,6.8,1.6,11.2,8.1,10.9,16.9,2.7-1.3,5.5-2.6,8.2-3.9-.9,9.8-2.8,23.7-14.4,18.1-.4,8.9-9.2,11.9-5.4,22.6,4.9-1.4,9-4.9,11.2-9.8,2.9,3,13.5,4.4,15.6,9.2-.9-.3-1.8-.6-2.8-.9-1.1,6.9,1,17.9,10.9,14.6,13.7-4.6-5.1-11.6-7.4-15,13.2-1.7-3.9-10.8-7.2-11.6-9.4-2.3.6-18.8,5.4-13.2-3.2,2-5.9,5.7-7.5,9.1,9.7,4.6,23.2-8.4,14.1-12.5-.7,2.2-2.3,3.1-4.7,2.5.8-1.7,2.5-5.4,3.7-7.7,2.1,2.6,4.3,5.1,6.6,6.7,2.2,3.4,2.6,5.5,2.3,7.1-.8.2-1.5.5-2.1,1.2.9-1,1.9-2.1,0,0-1.5,1.8-3.2,3.5-4.9,5.2,1.1.9,2.3,1.6,3.5,2.2.2.7.4,1.5,1,2.4,3.2,5.5,8.7,0,10-3.3,3.6,5.3,7.1,11.3,12.3,6.9-7.3-5.2-10.9-9.4-12.5-18.2-2.8,0-7.1-4.3-11.5-10.5,7,1.7,13.6,4.8,19.8,8.5-1.4-.3-3.1-.3-5.2.1,1.2,4.7,1.4,10.9,5.4,14.2,6.3,5.2,9.2-10.7.7-13.9-.7-1.6-1.6-4-2-6.3,1.2-.2,2.4-.6,3.6-1.3.3.8.7,1.5,1.2,2.1-.4.2-.8.4-1.2.6,3.7,4.7,9.2,6.6,14.5,3.7,4-2.2,3-4.8.5-6.4,1.1-3.1-8.8-11.5-10.2-12.6-5.6,1.9-3.7-3.2-.8-8.7,2.9,6.2,4.9,13.1,8.5,13.8-.2-2.6,1.8-5.1,3.8-7.8.5.5,1.2,1,2,1.5-4.1,4.3-3.7,8.9,3.1,12.8.9,0,8.4-14.3,8.9-15.3-3.9,2-5.6,4-7.1,2.4.9-4.3.4-9.8-2.5-12.4,0-1.4-.4-2.8-1-4.3,6.2-1.8,3.8,7.7,8.2,11.4,3,2.5,5.8.6,6.8-2.2.3,3.4,1.3,6.8,1.9,8.8,1.9-.8,2.9-1.7,3.6-2.7,3.1,5.2,7,8.6,9.8.3,1.6-4.8-.2-7.8-3.3-9.4,6.4-4.6,5.8,4,13.6,5.8-2.7,3.7-3.2,9.1-4.9,13.1-.5,1.2-5.8,19.9,2.4,14.9,7.6-4.7.2-11.9,2.4-17,1.5,2.9,3.9,4.5,7.2,4.7-1.1,2.4-1.1,4.8,0,7.2,4.4,8.5,9.7,1.2,14.8,2.5-2.6-4.6-5.2-9.5-5.1-15,3.7,5.2,8.2-1,13.5,1.6-3.3-8.9,1.1-5.1,5.1-13.1,1.7,5.3-3.7,9.4-3.3,15.6.2,3.5,4.8,12.7,9.9,10.4,2-4.9.9-11.9-.6-16.4,2.8,1.1,10.9,11.1,13,8.2,1.6-2.2-8.2-6.9-8.1-11.7,4,2.3,13.7,0,8.8-5.9-3.6-4.3-9.5-1.7-10.5-7.8,6.7,2.2,19.1-4.8,21.9-11.8,1.2-.2,2.2-.4,3.2-.6-1.6,3.9-2.5,10.5,1.7,8.9,0,6.7,9.9,7.4,7.7,1.4-1.6-4.2-4.9-6.9-6.9-10.8.5-.1.9-.2.9-.2l3.5-1.4c-.7.7-1.8,1.2-3.5,1.4,3.8.7,6.9,2.4,9.5,5.2,5.4,6.3-.8,3.7-.3,9.8,3.5,0,4.3-2,5.4,2-1-.2-5-.8-4.2,1.1-4.9-6.4-13.5.4-16.5,5,3.1,2.4,20.6,6.8,18.1-1.9,2.6,4.1,11.6,4.8,7.9-.9-.5-.7-.9-1.3-1.2-1.8,15.8,13.2,18.8-12.1,3.8-9-2.8.6-8.6-1.3-10.2-4.3,1.9-1.7,2.5-4.4,2.4-6.6,2.8-4.4,5.7-8.5,7.2-12.9,2.2.6,4.3,1.3,6,2.1-2,3.1-1.7,6.2-.1,8.1-.5.5-1.6.2-5.3-1.9-.3,2.8,5.8,8.3,5.1,13.8,1.4-1,11.9-4.8,8.5,0-3.4,4.8,3.5,15.9,7.6,6.7-.8-3.5,18.4,6.4,18.8,6.3,16.6-5.5-9.3-13.2-9.3-15,10.5,1.2,5.7-4.5.2-9.4.7-1.5.6-3.4-1.6-5.3,4.4,0,8.9-1.5,10.5-5.6,4.6,2.5.6,4.2-1.5,7,2.5,2.1,17.9,3.3,15.6-.6,11.4-6.1-8.7-12.6-12.5-13.9v5.4c-1.4-.8-3-1.7-4.5-2.6.3-3.2-1.4-6.2-6.9-6.9-.2-.4-.5-.7-.7-1.2-.2.2-.3.7-.4,1.1-.6,0-1.2,0-1.8,0,1-1.3,1.8-2.5,2.1-3.3,3.3,7.5,23.8,9.1,19.4.8,3.2,1.8,6.9.3,10.3-1.7-1.6,12.7,18.1,23.4,21.2,4.3,1-6-.6-13.9-5.4-17.9-3.2-2.7-2.3-6.6.2-10.8,0,0,0,0,.1,0-.5,6.9,2,15.8,11.1,12.8,4.6-1.5,5.5-5.3,2.7-8.5.8-.8,1.1-1.9.6-3.3.2-.3.4-.5.5-.7,2,7.6,12.2-1.4.7-6.1-.2-1.3-.6-2.6-1.4-3.7.5-.2,1,0,1.6,0,0,.3.1.6.2,1,.8,2.7,2.5,3.6,4.4,3.4,4,5.5,8.3,13.9,12.9,12.6-3.6,6.6-4.2,16.7,3.8,18.1,6.6,1.1,13.7-5,14-11.4.5-11-5.6-9.8,8.5-9.8-2.7-8.8,2.2-9.4-2-17.8-3.5-6.9,5.4-6.9,5.9-15.1.2-3.1-.2-5.3-.9-7.2,1.8-1.3,3.5-2.7,5-4-.2.6-.4,1.3-.4,1.9-.1-.1-.3-.3-.4-.4-1.4,2.1-6.7,22.2,1.4,17.2,2.8-1.7,3.8-4.4,3.7-7.2,1.8,1,4.1,1.5,6.8,1.3.9,7.2,6.4,8.4,10.4,6.9.3,5,2,8.4,5.8,2.1-1,6.1,23-2.7,14.1-11.9-2.3,1.5-7.2,6.1-6.1,9.4-2.1-1.1-4.3-1.4-6.6-.6.9-2.4.3-5-.7-7.2,3.1,3.5,15.2-1.2,8.8-4,6.6-2.1,2.9-9.7-2.3-13.5.1,0,.3-.1.4-.2,2.4-1.8-1.2-6.2-5-7.1,4.8-2,10.7-2.5,13.3-10.4-4.6-1.9-12.3-2.9-15.6,2.1-1.8-4.8-3.6-9.6-5.4-14.5-3.1-.8-5.6-2.5-7.5-5,7-2.7,4.1-15.3-3.1-15.3l.4-.7c3.3-.1,6.5-1,8.4-3.8,2.7-4,.9-6.7-.9-9.5l.5-1c.4.4.7.8,1.2.9,3.2,3.9,9.2,6.3,15,3.1-1.3,2.8-15.3,10.8-14.8,11.4,8.3,11.1,22.8-6.5,19.2-15.9-.4-2.3-1.3-4.7-2.6-6.8.6-.6,1.2-1.3,1.8-1.9,3.6,1.9,8.8,1.5,11-2,5.7,11.4,11.4,11.5,15.2,7,1.2,0,2.5,0,4.4,1.7,5.2,4.8,11.5-4.9,10.3-9.6,5.2,5.2-2.5,6.1-1.1,11.6,2.2,8.4,11.4,11.3,9.8-1.2,3.3,4.2,4.2,3.2,9.3,3.2-1.9-1.6-4-3.5-5.9-5.4,4.4,1.4,13.5-1.3,15.9-3.2-3.9-5.5-14-11.2-17.8-2.4-.5,1.2-.7,2.2-.6,3-4-4.4-7.1-9.5-7.3-15.5-.2-8.8,7.8-5.5,12-8.5-.9,4.6,1.1,7.8,5.8,9.5,4.7-4.5,4.5-10.9.5-15.7-1.1,1.2-2.3,2.3-3.5,3.4-1-1.7,2.3-8.3.9-11.7,6.3-2.7.9,14.1,11.7,12.2,13.7-2.3-9.1-19.1-12.9-20.1-2.1,13.8-4.5-.4-10,0-2.3,1.8-4.6,3.4-7.1,4.9-3.4.5-5.5-.5-8-.9,3.7-3,5.2-8.4,5.3-13.2.2-7.1-8.4-2-8.9-12l.7-.6c1.9.9,4.6,1.5,7.1,1.4,2.4,5.3,15.1-3.3,10-14.1-3.4,1.6-7.1,4.3-9.1,7.5,0-.4-.2-.8-.2-1.3l13.1-10.8c6.1,2.9,12.5,4.2,9.6-4.8-.2-.5-.2-.9-.2-1.3,1.6-.4,3.1-.8,4.5-1.6,1.6.3,3.1.7,3.9.9,4.9,1.4,6,2.9,5.3,4.5-2.6-2.1-5-1.6-7.1,1.7,0,0,.9,1,2.2,2.2-1.8,1-3.7,1.8-4.8,2.5,1.5,2,3.4,3.3,5.5,4.1-3.7.8-11.5,2.5-2.5.5,1.1-.2,1.9-.4,2.5-.5.4.2.7.4,1.1.5-1.1-.1-2.1-.3-3.6,0-1.2.3-2.5.8-3.8,1.5,0,0,0,0,0,0,0,0,0,0,0,0-.3.2-.6.5-.9.7-1.8-4.6-7.1-9.4-12.1-8.3,1,3.9,1.7,11.6,5.8,14.2-2.1,2.8-3.3,5.8-3.3,8.4-.5,2.4.7,3.8,2.3,4.5,1.2.8,2.7,1.3,4.9,1.5.3,0,.5-.1.8-.1-.5,1.3-.8,2.7-.4,4.6-.2-1.1-.4-1.8,0,0,.8,3.7.3,1.5,0,0,2.2,10.4,14.7-3.9,15.9-8.3-1.5-.5-3.4-.9-5.2-1,.3-.3.5-.6.8-.9,2.1,1.4,4.2.7,5.9-4.4,1.4-4.3.1-7-2.2-8.7-.6-1.6-1.5-3-3.2-3.6,1.2.2,2.5,0,3.7-.3,1.6,1.5,2.8,2.7,2.9,2.6,7.7,5.2,23.8,2.2,24-9.4,0-.5-.2-.8-.3-1.2,2.4.6,4.7.2,6.7-1.5-3.1,1.4-6-6.5-9.6-10.6.2-.7.3-1.4.4-2.1,2.1.6,3.9,0,5.6-.9,2.9,4.7,6.5,7.4,9.1.6,0,0,0,0,0,0-.4,1.2-.3.9,0,0,.6.6,1.2,1.2,1.5,1.5,13.6,15.9,5.9,6.8,4.4,22.1-1,10.7,13.6,5.2,9.3-7.8,1.1.8,2.2,1.6,3.3,2.4-2.5-4.5-10.7-11.6-15.6-17.4,0,0,0,0,.1,0,6.2,1.5,8.7-3.2,9-8.9,1.4-.3,2.8-.6,4.2-.9-7.8,3.1-6.1,17,.6,13.2.8-.5,2.2-2,3.5-3.8.6.7,1.3,1.2,2,1.6-.4.4-.7.7-1.1,1.1,4.2,3,9.6,3.8,13.9.3,0,2.8,1,5.2,3,7.2-2.6.4-5.6,2.4-8.3,2.5,2.8,4,5.4,9.7,10.2,11.7,8.4,3.5,8.3-10.2,2.5-13.3,4.6-1.7-.9-19-12.3-15.1-1-2.2-3.8-4.5-3.1-7.5,8.3-.2,18,6.3,25,9.2,3.7,1.5,8.9,0,4.3-1.8-2.8-1.2-1.5-5.1-3.7-7.6,0-.4.2-.7.3-1.1,5.4,2.6,23.6,10.1,17.1-3-4.3-8.7-12.6-3.9-17,1.4,0-3.2-1.3-6.3-4.4-7.4.2-.2.4-.5.6-.7,3.8,1,7.5,1.9,11.4,2.1-2-5.6-5-6.3-8.6-6.6.8-2.1.7-3.7-.9-3.7-2.9,0-4.9,1.2-6.6,2.8-.9-.3-1.8-.6-2.7-1.2,14.8,0,4.1-13.9-8.9-5.3,1.6,1.7,2.1,2.8,2.1,3.7-1,.6-2.1,1.3-3.2,2.2-.2,0-.4,0-.7,0-.5-.7-.9-1.4-1.6-2.1,0,.8-.5,1.5-.6,2.2-3.2,0-7-.5-10.2-.9,2.7-2.3,4.7-5.1,5.1-8.1.3,1.2.4,2.1,0,0,0,0,0-.2,0-.3,2.4,8.9,13.2-2.8,15.3-7.8,4.9-1,8.6-6.1,1.3-10.1-3.4-1.1-6.8-2.2-10.2-3.3-.9,6,.2,9.7,2.2,11.7-2.3.1-4.5.6-6.2,1.7,3.3-3.2,5.5-6.7.9-9.8-1.3-.8-2.8-1.5-4.4-2-.8-2.8-2.5-5.3-4.6-6.9-.3.4-.7,1.6-1.1,3.1-.3-1.7-.8-3.5-1.8-5.4.2-.7.4-1.3.6-1.9,2.1-1.2,4-2.8,5.3-4.7h2.7c-1.2,3.6-1.4,8.1,2.8,11.6,10.7,8.9,15.2-8,2.3-8.7,5.3-.3,11.9.6,6.5-4.5,10.8-4.3-1-10.2,11.6-6.6.6-1.3-1.8-3.4-4.3-5.1,5.5-5.1,12.5-7,20-7.7,7.1-.7,10-12.1-5.6-12.1-3,0-6.2-.6-9.4-1.5,1.3-.3,2.6-.7,4-1.2-3-6.9-7.4-13.8-13.2-18.7,0,0,0,0,0,0,1.4,1.1,2.1,1.6,0,0,1.3-1.6,1.1-3.7-.6-6.3,1.6.7,3,1.2,4.6,1.9.8,1.8,1.6,3.6,2.9,5,1,1.1,2.1,1.9,3.1,2.6-3.8,13.2,8.6,16.1,16,10.2.2,0,.3.1.6.2,0,0-.3-.1-.6-.2,0,0,0,0,0,0,.2,0,.3.2.5.2.3-.4.4-.9.7-1.4,2.9-3,4.7-7.7,3.6-14,3.2,4.2,13.2,7.5,17.4,2.5-3.3,2.7-9.6-6.2-11.8-10.5,0-.6-.1-1.1-.3-1.8.4,0,.7,0,1.1,0,3.6,6,13.2,19.8,15.2,6.5,0,0,0,0,0,0,0,0,0,0,0,0,.9-6.4-3-8.9-7.8-9.3.8-1.5,1.3-3.8,2.6-7.5-.4,0-1,.3-1.5.4l.3-.3c1.2-.2,2.4-.3,3.6-.5,2.2.4,4.6.3,7-.6.2,0,.4,0,.6,0-2.2.9-4.1,2.3-5.6,4.1-.2,2.5,11.2.8,17.1-2.4,1.5.3,3,.7,4.2,1,6.7,2,16.7,4,23.5,3,13.7,2.9,2.6,10.2,12.6,12.9,6.2,1.6,6.1-6.2,4.8-9.4,6.3,1.2,13,2.9,13.6-3.8-8.9,1.5-14.4,1-21.7-4-3.4,3.6-19.5.7-33.4-3.8,1.9-5.8,1-12.3,2.8-18.1,1.9,3.7,4.9,13.6,7.7,14.9,9.8,4.2,4-11.2.3-13.8,2.2.2,15.4-.8,12.4-8.1-3.8-9.1-12.2-1.1-16.7.2,1.4-2.4,1.7-4.9,1.3-7.4,2.3,1.5,6.8,2.9,9.5,2.5-5.5-7.7-3-11.5,6-6.3-1.5,2.2-2.9,4.5-4.4,6.7,7.7,2.1,15.8,7.3,19.3,4.9-4.8-4.1,0-16.9-11.4-21.5,3.2-5.6,8.1,2.8,13.8,2.3,5.2-.5,4.6-6.2,1.4-8.7-4.2-3.3-12.5-1.6-17.4-2,4.7-3.7,3.2-13,.7-17.4-2.2,1-4.3,2.6-6,4.5,1.3-5.3,3.7-9.4,13.7-5.6,2.6,1,4.9,1.4,7.1,1.4,0,.5-.2,1,0,1.5-4.5-1.1-7.4-1.2-8,3.5-1.2,1.8-2.3,4.3-3.1,7.9,4,.6,7.6,1.4,12.8,2.1.6-3.7-4.5-3.5-4.5-3.5,0,0,0,0,0,0,1.8-.7,3-1.7,3.7-2.6-1,5.6,11.8,4.1,8-2.3.3.5.6,1.1,0,0-.9-1.5-1.8-3-2.8-4.5-2.1,1.8-3.5,3.3-4.3,4.6,0-.8,0-1.6-.5-2.4,1.6-.7,3.1-1.5,3.7-2,0,0,0,0,0,0h0s0,0,0,0c0,0,0,0,0,0,0,0,0,0,0,0h0s0,0,0,0h0s0,0,0,0h0s0,0,0,0c1.8-1.4.7-.5,0,0,1.6-1.3,2.4-3.3,2.5-5.4,2.2-2.5,3-6.3,1.5-11.1-.5-1.8-1.4-3.1-2.3-4.3,1.3.8,2.4,1.8,3.1,3.2,1.1-.9.2-2.6-1.4-4.6.9,0,2-.1,3.2-1.1,0,0,0,0,0,0,1.1-.9.6-.5,0,0,2-1.6,2.2-3.7,1.7-5.9,1.1.3,2.1.7,3.1,1-.2,1.9,0,3.5.3,4.9-6.1,6.7-11.7,18.9,2.4,15.9-4.2,4.1,3.4,13,6.1,9.4,3.5-4.7,2.9-10.2-.7-14.5-1.4,1.5-2.9,2.9-4.4,4.2-1.1-3.8,1.2-6.9,2.4-10.5,1.4,0,2.9,0,4.8-.4,0-.1,0-.2,0-.4.1.5.3,1,.6,1.5,4,8.6,13.1,1.3,8.2-6.2,4.3-1.4,12-4.5,14-8.2,4.5-8.3-15.3-2.6-17.3-1.3,2.9,1.5,4.8,5.1,8.5,5.3-6.7,1.5-13.6.8-20.5-.8-1.5-.7-3.1-1.2-4.3-1.3,0,0,0,.1,0,.2-1.4-.4-2.8-.8-4.2-1.2-1.9-3.6-5.6-6.9-8.2-7.8-4,3,3.8,4.2-5.1,3.4.2.2.4.5.6.8-2.3-.6-4.5-1.1-6.7-1.4.2-.5.3-1,.4-1.6,1.3-.8,1.8-1.6,1.7-2.3,0-.1,0-.2,0-.3,0,.1,0,.2,0,.3.2.8.4,1.5.3,2.6,3.2-.2,4.3-2.4,3-6.8,2.1,1.4,4.2,2.9,6.3,4.3.9-.7,1.3-1.3,1.4-2,2.9,1.8,5.9,4.2,8.9,5.3,9.2,3.3,10.1-9,.7-10.3,0,0,0-.2.1-.3,2,.4,4.2-.4,5.8-1.5-.8.8-1.4,1.6-2,2.4,1.1.6,3.4,1.6,6,2.6-1.7,1.5-2.6,3.6-2,6.8-.2-1.1-.4-1.8,0,0,.8,3.7.3,1.5,0,0,1.9,8.7,10.8.2,14.4-5.4.1,0,.2-.2.2-.4.6-1,1.1-1.8,1.2-2.5-.3,0-.6-.1-.8-.2-.2-1-.4-2-1.1-3.5t0,0s0,0,0,0c-3.6-7.2-10-5-14.6-1.1.8-1.1,1.2-2.2.3-3.2-1.3-1.4-2.8-2.3-4.4-2.9,1.1-4,1.6-7.9-.3-7.8-3.7,0-6.6,1.4-8.7,4.5-1.2-.2-1.9-.8-2.6-1.5,2.1-1.6,1.3-3.8-.8-5.6,2.8-1.4,2.9-3.3,1.6-4.8,7.5-1.8,17.4-5.7,7.5-11.2,1.4.8,2.8,1.5,0,0-2.8-1.6-1.5-.8,0,0-7.9-4.3-11.9,2.8-13,9.3-2.9,0-6.2,1.1-9.6,4.3.7.5,1.6.9,2.3,1.3-.3.2-.5.4-.8.7-1.3-.4-2.7-.8-4-1.2,1.8-1.4,3.6-2.8,4.9-4.7,0,0,0,0,0,0,0,0,0,0,0,0,1.4-2.1,1.6-3.9,1.3-5.3.4-1.2.7-2.4.8-3.6-1.1.3-2.2.4-3.2.4-.8-.4-1.8-.5-2.7-.3-3.2-.7-5.8-2.5-8.4-3.5,1.8-3.2-.6-6.7-2.4-10.1,4.9-1.5,9.6-2.2,12.3.8,1.2-9.7,26.3-6.6,31.7-5.8-5.2,3.7,10.1,8.2,9.8,9.6,9-3.4,2.2-2.3,6.1-8,6.7,4.6,14.6,6.5,17.7,12.3,2.6-1.6-2.8-26.8-14.5-18.3-6.1-2-7.1-4.7-3.1-8.1.6-.8.6-1.5.7-2.2,2.4,4.9,7.5,9.1,7.9.7,7.1,5.2,14.6,7.4,16.9,14.3,0,.2.1.3.2.4-1.9-3.5-5.6-6.6-8.1-7.5-1.5,4.1-1.7,23.7,7.4,16.2,0,0,0,0,0,0,1.1-.9.6-.5,0,0,2.5-2.1,2.4-5,1-7.9,2.9,4,9.8-6.7,10.3-9-.6,2.6-.6,8.6,2.3,10.1-3,1.8-5.6.8-8.7-.6-3.2,15.5,15.7,15.7,9.7.9,9.5.6-4.5-14.7-5.9-15.7-7.3-5.6-12.4,2.7-19.9-1.4,4.4.7,5.4-4.2,5.1-9.2.4,0,1,.2,1.4,0-.5-.5-.9-.9-1.4-1.4-.3-3.2-1.1-6.2-1.8-7.4-.5.5-1.8,1.3-3.4,2.3-2.7-2.7-5.5-5.4-8.2-8.1,0-2.9-2-5.6-6-6-1.2-1.2-2-2.1-2.7-2.9,0-.6.2-1.2.2-1.9,4.9-1.1,9.5-4.4,8.6-10,1,.3,2.1.7,3.6.6,7.6-.1,6-10.3,11.7-10.3-3.2,5-2.7,7.8,1.5,8.6,6.3-11.9,4.2-14.8-6.6-20v-.7c14.7-4.5,17.2-7,13.1-9,1-.7,1.8-1.9,2.2-3.8.5-1.3,1-2.7,1.6-4,1.1,2.8,2.2,5.6,3.4,8.5,6-11.1-.4-2.2,6.9-4.4,6.6-2-.1-8.2,1.2-10.6-1-.6-4.8-1.7-7.9-2.7.3-.7.6-1.4.8-2.2-2-.3-4.1-.4-6.1-.3-1.9-2.6-3.8-5.1-5.8-7.7,0-.1.1-.2.2-.3,1,.2,1.9.4,2.9.7,0,0,0-.2,0-.5,0,.7.2,1.5.5,2.3,4,9.9,13.8-6.4,14.3-10.9-5.7-1-14.5,1.2-14.9,7.3-.1-2.3-.3-6.1-.4-7.8l.8-.8c8.2.2,12.8,2.6,22.4-.3,7.4-2.2,10.5-.8,12.6-8.8,2.2-8.6,8.4-7.5,8.7-13.9-8.4,4.8-13.9-1.2-20.3-5.5-.4-.7-.9-1.5-1.7-2.2-4.6-4-8.6-1.4-12.8-1.9-.8-.3-1.7-.5-2.5-.8,5-.4,16.6,0,17.6-4.5-1.5-.7-3.1-1.4-4.6-2,.3-.3.6-.5.8-.8,7.6-9.7-2.5-9.4-8.1-2.4-1.4-.6-2.7-1.2-4.1-1.8-.8-1.9-1.5-3.9-1.9-6.1-4.4,1.8-8.9,5.5-9.5,10.5-.2-.1-1-5-1.9-8.4.5,0,.9,0,1.4,0-.2-.9-.2-1.5-.2-2.2,3.6,1.2,2.3.4,0-1.2.1-1.1.6-1.8,1.1-2.3,4.4,1.9,9.6,2.6,9.5-2.1.8-.2,1.6-.5,2.2-.9,1.2-.7,1.7-1.6,1.9-2.6,15.7,4.8,32.7,3,41,21.2,0,.1,5,25.2,9.6,10.8,1.6-5.1-7.2-16.9-8.4-13.3-6.4-10,7.4-14.4,1.4-26.5-4.6,1.9-10.7,6.7-9.5,12.5-4.7-2.1-9.3-4.3-14-6.4-2.8,1.6-5.7,2.1-8.8,1.8,3-6.8-7.9-13.7-13-8.6-.3.3-.5.5-.8.8-.6.6-1.2,1.2-1.8,1.8-.3-.1-.7-.3-1-.3-2.9,0-5.5,1-7.9,2.9-2.7-.1-5.4,0-7.6.2-.9-.2-1.8-.5-2.8-.7,1.9-1.9,3.3-6.6,2.5-8.7.1-1.5,0-3-.3-4.4,2-.5,3.8-1.2,5.3-2.2-.6,3.3-2.3,6.9-3.5,11.6,14.6,1.8,11.2-8.9,10.1-14.6-.2-1.2-1.6-2.4-3.1-3.6,0-1.2-.2-2.6-.6-4.2,4.2,5.3,9.3,9.2,10.7-.2,1.5-10.3-9.6-10.5-16.2-8.2.3.5.7,1.3,1.3,2.3-.3-.2-.7-.5-1-.7-2.1-5-12.2-8.9-13.9-11.6,5.4.2,11.1-8.8,11-13.5,3.3,3.8,5.2-5.4,4.2-8,2.9,1.1,5.4,17.9,11.2,6.5.9-1.7,1.2-9.1,1.7-9.7,1.6.8,6.4,3.1,4.3,3,1.8,0,3.2,5.1,7,3.9,4.9-1.5,2.8-7.9.5-10.4-5.5-6.1-13-2.7-19.5-1.7.6,1.1,1.4,2.1,2.3,3.1-5.8,1.2-5.7-6-11-6.1,0,2.3.2,4.8,0,7.1-4-2-1.8-2.7-2.3-6.5-1.6.4-3.2,1-4.6,1.7,4.1-7.9-.8-4.8-1.6-7.5.2-.1.5-.2.7-.4.9-.6,1.5-1.1,2.2-1.7,4.3,1,3.8,2.5,7.1,4.3,3.2,1.8,11.1-5,10.2-5.6,2.4-1.2,1.6,4.1,4.4,5,4.4,1.4,4.9-4,9.8-2.5-4.5,3.1,1.1,5.4,5.8,5.5-7.7,4-1.1,7.7,4.7,5.6,2.7,4.1-6.8,18.7,3,18,5.1-.4,3.2-4.1,8.8-4.3,7.1-.3,4.7-11.6.5-14.1,7.3,0,2.6,6.1,7.4,8.9,7.5,4.4,16.1,0,6.1-7.8,5.3.6,5.2-.7,8.8-4.4-2.5.2-5.2.4-8,.4,4.1-2.1,8.7-10.4,9-13.5-6.7-1.1-17.8,2-14.3,10.9.5,1.2,1.1,2,1.7,2.5-5.9-.3-11.8-1.7-16.1-5.8-4.6-4.4-1.7-7.4.6-10.6h-4.2c-1.9,11.9-4.4-.1-10.4,5.9-3.8,3.8-1.9-2.1-2.2-5.9h-11.7c-.4.4-.8.8-1.2,1.3-2.9,1.4-11.7,2.8-14.7.6.4-.6.6-1.3.8-1.9H0v817.9c.8,2.8,1.3,5.8,1.6,8.8.7,7.1,12.1,10,12.1-5.6ZM1233,888.6c3.5,4.6,2.3,2.8-1.1,6.9-2.5-3.9-.7-1.9,1.1-6.9ZM1458.6,667.3c5.2-.4,9.9-.3,15,.2-3.3,2.3-8.5,7-6.4,11.9-8.4,6.1-5.1,0-8.7-2.3,0,0,0,0,.1,0,0,0,0,0-.1,0-.7-.4-1.6-.7-3-.7-7.6,0,6.3-5.6,3.1-9ZM1575.4,581.8c-.3.6-.6,1.2-.9,1.8h-2.6c0-.8-.1-1.6-.2-2.3,1.3.1,2.5.3,3.7.5ZM1571.9,583.8c.9,2.7,1.6,6.1,3,9.1-2,.6-4,1-7.2-.2,3.5-.8,4.4-4.8,4.2-9ZM1560.8,584.2s0,0,0,0c-1.1,1.5-2.4,2.5-3.7,3.6.6-2.1.4-4.9-.9-8.5,4.5-.3,4.2,2,4.6,4.9ZM1559.1,561.4c-1,1-1.7,2.3-1.8,4-.2-.6-.3-1.2-.6-1.8.8-.7,1.6-1.4,2.4-2.1ZM1676.5,338c2.2.6,3.2,2.3,3.7,4.5-.4-.8-1.5-1.5-3.1-2-.2-.3-.4-.5-.6-.8,0-.6,0-1.1,0-1.7ZM1671.8,350.5c.3-.3.5-.5.8-.8,1,.2,2.1.1,3.1-.3,3.9.5,7.6,1.8,10.2,4.4.1-.6.6-.9,1.2-1.2.5,1.3,1.1,2.6,1.7,3.9-1.3-1.2-2.4-2.2-2.9-2.7-.7,2.5-.3,4.1.6,5.2-1.2-.5-2.4-.8-3.7-1.1-2.8-5.6-8.2-2.2-11.2-6.9v-.5ZM1732.6,253.1c.9.5,2,1.3,3.2,2.2-1.5.7-3,1.4-4.3,1.9-.8-1.4-.5-2.8,1.1-4ZM1777.8,132.3c0,.2,0,.5.1.7-.1-.2-.2-.4-.3-.6,0,0,.1,0,.2,0ZM1763.6,120c0,.2,0,.3-.1.5-.2,0-.5-.1-.7-.2.3-.1.5-.2.8-.3ZM1751,116c.2.3.4.6.6.9-.5-.1-.9-.3-1.4-.4.3-.1.6-.1.8-.4ZM1742.8,33.4c.2-.5.4-1,.4-1.6.2.6.3,1.1.9,1.7-.4,0-.8,0-1.3,0ZM1747.5,25.6c-2,1.2-3.9,2.3-4.5,3.8-.3-1.2-.7-2.5-1.4-3.9-.3-.6-.8-1-1.2-1.6,2.1.4,4.3.9,7.1,1.7ZM1730.6,51.6c0,0,.1.2.2.3,0,0-.1,0-.2,0v-.2ZM1725.6,265.2c0,0-.1,0-.2,0,.1-.4.3-.9.4-1.2,0,.6.2,1.3.4,1.9-.2-.3-.2-.6-.6-.8ZM1726,261.4c-.2,1.4-.5-.4,0,0h0ZM1726.4,252c.4.9.7,2.1,1,3.6.1,1,.4,1.7.6,2.3-1,0-1.6-.2-1.6-.9-1.2-1.4-2.4-2.7-3.8-4,1.5-.1,2.7-.5,3.8-1ZM1719.9,249.3c0,.3-.3.5-.3.8-.2-.3-.4-.4-.6-.6.3,0,.6-.1.9-.2ZM1715.6,263.1s3,1.7,4.8,2.7c-4,1.6-6.4,5.9-8,10.2,3.5,1,8.3,1,11.2-1.7-3,6.3-10.1,6.7-16.9,5.5,5-1.2,5.7-8.8,5-14,1.6-.2,3-1,4-2.7ZM1696.8,247.1l.8-.6.2-7.2c5.6,2.4,11.5,4.6,14.6,4.3,1.1,1.6,1.8,2.8,2.2,3.8-.7.9-1.4,1.9-2.2,3-4.3,0-12.7-3.9-14.8-3.9,0,1,.1,2.1.2,3.2-.4-.4-.7-.8-1.2-1.1,0-.2.2-.5.3-.7,0-.3,0-.5,0-.8ZM1683.6,258.6c0-.3,0-.5,0-.7l.2-.2c4.3.7,9.1,1.6,13.1-.4.8-.4,1.2-.9,1.7-1.4.4,2.1,1,4.1,2.2,5.8,5.3,6.8,11.6-3.7,9.4-9.1,8.1,1.9-1.1,7.2-1.8,10.8-4.8,2.3-10.5,7.2-7.5,12.6-9.7-7.2,3.4,7.6-6.7-1.1-2.7-2.3-6.9-2.2-10-1.3.6,1.6,1.2,3.2,1.7,4.8-16.3-2.2,7.4-13-2.2-19.8ZM1667.9,410.5c-4.1,3.6-4.6-1.6-6.9-3.7l.3-.3c.9-.2,1.8-.4,2.7-.6,1.3,1.5,2.6,3.1,3.9,4.6ZM1665.3,284.7c.9-.3,1.8-.7,2.7-1.2-.5,1-1.3,1.9-2.5,2.7-.1-.3-.2-.5-.3-.8,0-.2,0-.5,0-.7ZM1659,287.9c.3,0,.5,0,.8-.1.3.4.4.8,1,1.2-.7.3-1.3.2-1.9.3.2-.5.2-1,.2-1.4ZM1655.5,294.2c1.1-1.2,2.1-2.4,2.8-3.6,2.1-.8,4.3-1.6,6.5-2.3-.6,3.6-3.1,6.1-7.4,7.4-.3,0-1.6.4-3.2.9l1.3-2.4ZM1574.5,461c.3-.2.7-.3,1-.6-.7,3.4-.7,6.8.1,10.2-1.1-.3-2.1-.5-3-.7.9-2.8,1.5-5.8,1.8-8.9ZM1562.8,521c0,.4-.1.7,0,1.1,0-.7-.2-1.4,0,0,.2,1.4,0,.7,0,0,0,.4.2.5.3.8-.2,0-.3,0-.4.1.1-.8,0-1.6-.6-2.2.3,0,.5.1.8.2ZM1545.5,594c0-.4,0-.8-.1-1.3.2-.7.4-1.3.5-2,.8,1.2,2.3,1.9,3.9,2.1-1.4.4-2.9.8-4.4,1.1ZM1547.7,580.1c1.1.5,2.1.9,2.9,1.2-2.6,2.1-4,3.9-4.6,5.5-.4-.3-.9-.3-1.9.4-.7-2-1.6-3.7-2.6-4.7,1.9-.3,4.1-1.2,6.3-2.4ZM1507.5,604.1c1.2-.4,2.4-1.1,3.6-1.9.8.1,1.6.1,2.3,0,.7.8,1.5,1.6,2.5,2.2-.3.5-.6.9-1,1.4-1.4-.2-3,.6-4.7,2.9,0,.4.2.7.3,1.1,0,0-.1.1-.2.2,0-.3,0-.6-.1-1,0,.2,0,.6.1,1-.4.6-.3,1.2.2,1.9,0,.1,0,.3,0,.4,0,0,0-.3,0-.4.3.4.7.7,1.4,1.1,0,.1.1.3.2.4-1.6,0-3.3,0-5,.4.4-2.6.4-6.1.2-9.8ZM1501.9,606.5s0,0,.1,0c-.1,0-.2.1-.3.2,0-.1.1-.2.2-.3ZM1500.3,615c.4.4.7.7,1,1-.7.4-1.4.8-2.1,1.3.2-.7.5-1.5,1-2.3ZM1488.6,609.9c-.2.4-.4.7-.7,1.1-.4-.7-.8-1.1-1.2-1.6.6.2,1.2.3,1.8.5ZM1435,648c0,0,0,.1.2.1-.1,0-.2,0-.3,0h.1ZM1396.9,782.3c0,0-.2-.1-.3-.2,0,0,0-.1,0-.2-1.4-1.7-3.3-2.3-5.3-2.8-1.8-.8-3.7-1.4-5.6-1.7-.5-.2-.9-.5-1.4-.9.7-.5,1.3-1.3,1.9-2.6,0,0,0,0,.1,0,0,.2,0,.2,0,0,3.6.7,8.8.3,11.9-1.8.9.1,1.8,0,2.6,0-.1.7-.3,1.5-.5,2.3-.4.4-.8.9-1.2,1.3.3.2.5.3.8.5-.2.5-.2.9-.3,1.4,0,0-1.3,2-2.7,4.5ZM1407.2,778.8c.5,3.7,1.2,7.7,3.8,10.2-2.4-.2-5.7,1.2-4.9,4.2-2.2-3.9-4-2.7-5,.4-.4-.2-.6-.5-1.1-.7-.3,0-.6-.2-.9-.3,1.3-1,2-2.1,2.1-3.2,1.9-3.4,2.9-8.4,2.5-11,1.1.3,2.3.5,3.4.5ZM1374.2,753.6c1.3.5,2.7.8,4.4.6.1,0,.2,0,.3,0,4,2.5,8.7,2.8,12.8-.3,3.5-2.6-5.4-10.5-9.6-5.9,0,0,0,0,0,0-.8-.4-1.7-.7-2.7-.9,1.4-1.9,2.7-3.9,3.7-5.9,2.4,3.8,7.1,7.1,11.5,7.1,3.7,5.9,6.6,11.9,6.7,18.9-.2-.1-.3-.2-.5-.3,0,0,0,0,0,0-.6-4.4-2.9-4.9-5.8-3.7-7-4.4-15.8-9.1-22.3-6.2-.3-.3-.5-.5-.8-.8.6-.7,1.4-1.5,2.3-2.6ZM1348.9,825c0,0,0-.2,0-.3,0,0,0,0,.2,0,0,0-.1.1-.2.2ZM1337.4,813.5c2.2.6,4.5,1,6.3,1.4,1.7.9,3.5,1.9,5.6,3.1-1.1.7-1.9,1.3-2.5,1.9-2.4-2.1-6.3-4-10-5.6.2-.2.4-.5.6-.8ZM1315.8,820.8c.9.4,1.6.9,2.1,1.5-.1.2-.2.3-.3.5-1.2-.5-2.5-.9-3.8-1.2.7-.2,1.3-.4,1.9-.7ZM1301.9,836.3c-.8.5-1.4,1.1-2,1.7-.7-.4-1.6-.7-2.5-1,1.4,0,2.9-.2,4.5-.7ZM1289.2,835.2c.8.5,1.8,1,2.9,1.3-1.1.1-2.2.4-2.9,1,.3-.2.3-1.1,0-2.2ZM1280.4,840.1c-.2,1.8,0,3.6.7,5.3-2.5-1.4-5.7-4-.7-5.3ZM1273.5,839.9c.6.1,1.6.3,1.6,1-.8.7-1.7,1.4-2.5,2.1-1.2-.2-.9-1.3.9-3.2ZM1258.5,855.6c.4-.3.8-.7,1.3-1.1.4,1.6.9,3.3,1.4,3.8-.8.7-1.9,1.1-3,1.4.2-1.5.3-2.9.3-4.1ZM1257.7,862.6c.8-.4,1.8-.8,3.3-1,1.1,2.1.5,3.9-1.9,5.6-1-.7-1.6-1.3-2-1.9.2-.9.5-1.7.6-2.7ZM1261,867.8c0,.3,0,.7,0,1-.9-.8-1.6-1.3-1.7-1.5.5.2,1.2.3,1.8.5ZM1256.5,858.5c-.4.3-1,.7-1.5,1.2-.3,0-.5-.2-.8-.3,1-.3,1.9-.6,2.3-.9ZM1252.1,874.5c-1,4.3,6.2,4.6,8.2,1.7,1.7,4.8.9,10.9-2.9,14.5,3.7-10.3-5-10.3-7.7-11.8.8-1.5,1.7-2.9,2.5-4.4ZM1242.9,857.6c-.2,1.3.6,2.1,1.9,2.4-1,.6-2.1.5-3.2,0,.5-.7,1-1.5,1.3-2.5ZM1150.2,901.5c.8,1.5,5.7,5.5,4.4,6.5-1-3.2-5.8-3.4-4.4-6.5ZM1147,895.9h0s0,0,0,0c0,0,0,0,0,0ZM1118.9,885.3c-.4.1-.8.3-1.2.5-.5-.7-1-1.3-1-1.3,0,0,0,0,0,0,.8.3,1.5.6,2.2.7ZM1114.3,876.4l1,.6c-.4.1-.7.1-1.2.3.1-.3.1-.7.2-1ZM1110.4,880.3c1.7,2.3,3.3,4.7,5.3,7.4-.8,1.2-1.2,2.8-1.3,4.4-1.2-4.5-6.5-8.5-9.7-11.9,1.4.5,3.2.6,5.7,0ZM1044.3,904c.1.2.3.4.4.6,1.7,3.1,3.9,6.8,6.4,10.2-6.2-1.6-5.8-4.2-6.8-10.8ZM1066.4,902.3c1.5-.4,3-1,4.3-2,.7,2.5,2.5,3.7,5.2,3.7,0,1.3-1.2,2.3-3.1,3.3-.7-.5-1.5-1.2-2.1-2.2-1.5,1.5-2.4,2.9-3.1,4.2-4.4,1.4-9.3,2.7-12.1,4.3-2.2-3.3-4.3-6.9-6.3-10.6,3.4-.7,6.3-2.9,9-1.8-.6,2-1,3.7-.6,4.6,2.7,6.9,6.8,1.8,8.8-3.5ZM1062.8,888.2c.5.4-.3,2.4-1.4,5.1-1.1.4-2.2,1.3-3.5,2.9,0-3.4-6.7.3-10.4-3.8,3.6.7,13.7,1.2,15.3-4.2ZM1055.7,882.2l.2.3c-.2,0-.4-.1-.6-.2,0,0,.3,0,.4,0ZM1043.9,884.5c9.9-3.4,3.2,5.4,9.8,3.6,0-1.3,0-2.1.2-2.9,1.6,0,3.2.1,4.7.5-2.6.7-5.3,2-5.8,4.1-5.3-5.3-7-2.4-9.2,1.4-.8-2.1-1.5-4-2-5.7.7-.3,1.4-.6,2.3-1ZM1025.7,868c3.2,1.9,9.2,10.4,9.9,15.4-.7.2-2.3-1.2-5.3-5.9-1.1-2.9-3.2-4.6-5.7-5.5.4-1.5.8-2.8,1.2-4ZM1023.2,881.6c2.3,1.9,4.8,3.7,7.1,5.4.7,2.1,1.3,4.3,2,6.4.9-1.1,1.7-2,2.4-2.8,1.2,1.3,3,3.4,4.8,6-1.8,1.4-4.3,2.2-7.9,1.3-7-1.7-8.7-8.9-8.4-16.3ZM916.1,919.9c0,0,0-.1,0-.2,0,0,.2,0,.2,0,0,0,0,0-.1.1ZM915.6,915.4c0-.1.1-.3.2-.4.4.3.8.7,1.1,1-.5-.2-.9-.4-1.4-.6ZM918.2,909.2c0-.2.1-.4.1-.6.3.1.5.2.7.3-.3,0-.6.2-.9.3ZM919.8,907.8s0,0,0,0c-.7-.2-1.2-1-1.7-2.8-.9,1.6-2.5,2.7-4.2,3.7,0-.5-.2-1.1-.3-1.6.8-.2,1.6-.4,2.4-.7-.3-.7-.8-1.1-1.2-1.7.4-1.1.8-2.3,1.1-3.7.5.2.9.6,1.5.8.3-.7.4-1.5.5-2.2.6.2,1.4,0,2.1,0-1,1.4-1.9,3-2.8,5.2,2.2.5,4.3.5,6.5.3-1.2,1.2-2.7,2.9-3.9,2.6ZM966,902.6c-.2-.3-.4-.5-.6-.8.4.3.9.3,1.4.5-.3.1-.5.2-.7.3ZM1018.5,878.6c1.5,3.3,1.5,6.2.7,8.8-1-1-2.1-1.9-3.2-2.6,1.9-1,2.7-3,2.5-6.3ZM990.4,871.5s-.1,0-.1,0c0,0,0,0,0,0,0,0,.1,0,.2,0ZM962.6,860.7h0c0,.4-.2.8-.2,1.1,0-.4.1-.7.1-1.1ZM962.4,862.4c-.2,1.4-.2,2.6-.2,3.8-.5-.6-1.2-.9-2-1.1-.2-.2-.4-.4-.6-.7,1.2,0,2.3-.6,2.8-2.1ZM958.2,864.9c-.2,0-.4,0-.6,0,0,0,0,0,0,0,.2,0,.4,0,.6.1ZM964,872.8c1,1.2,2.3,2,4.4,1.8,1.7,1.9,3.5,3.5,5.8,4.3,6.5,2.2,7.6-5.9,4.7-10.8.3-.4.6-.7.8-1.2,0,0,.1-.2.2-.3,1.3-.7,2.3-1.9,2.8-4.2.2.4.4.9.6,1.3,2.6,6.3,5.2,12.4,7.6,18.2,1.3,3,5.5-.6,8.8-5,1.9.3,3.5,0,5-1.3-.6,1.4-1.1,2.8-1,3.9.3,4.3,4,13.8,8.8,4.8,0,0,0,.2-.1.3,0,0,0-.2.1-.3.1-.3.3-.5.4-.7-.1.2-.2.4-.3.7,2.5-4.8.4-11.6-4.4-14.1.8-2.3,1.3-5,1.5-8,0,0,0,0,0,0,1.5,3.6,3.6,6.5,6.8,7.3-1.7,5-3.2,10-3,14.9-.9,3.2-2.3,10-1.8,14.4-.8.9-1.5,1.8-2.2,2.7-13.3-23.5-22.9,9.2-1.2,1.8-2.6,4.3-10.5,4.6-11.7,9.9-1.4-1.4-2.7-2.6-3.9-3.6.7-.8,1.4-1.5,2.1-2.5,2.7-3.8-4.6-5.7-12.6-6.2-.7,0-1.4-.2-2.2-.1-2.7,0-5.3,0-7.6.2,3.7-2.1,7-6.1,8.2-8.7-3.7-2-10.8-3.6-14.5-.6-.2,0-.5-.2-.6-.2-.7,0-1.4.2-2.1.5-.8-2.8-1.5.2-2.1,1.5-.2.2-.4.3-.5.5-.3-.2-.5-1.5-.8-4.7-.1-1.5-.8-2.8-1.6-3.9.7-.6,1.5-1.2,2-2.1,1.8-3.1-.8-4.6-3.9-6,3.4-.6,6.9-1.5,7.5-4.6ZM958.1,897.3c-.1.1-.3.3-.4.5-.2-1-.9-1.7-1.6-2.4.7.7,1.4,1.3,2,2ZM961,900.5c1.8,2.1,3.2,3.9,4.2,5.2-.2.4-.3.7-.5,1-.7.2-1.2.7-1.3,1.6-.4.4-.7.8-1.1,1.1-.6-.4-1.2-.8-1.8-1.2,0-.2,0-.4,0-.6-.1,0-.3.2-.5.2-1.9-1.1-3.5-2.1-3.5-2.6-3.2-4.4.2-4.8,4.7-4.8ZM944.1,887.4c3.4.7,7.1,3.3,10.7,6.6-3.4-2.2-8.7-2.7-11.8-3.5.2-1.1.7-2,1.1-3.1ZM940.5,894c0,6.6,5.5,9.6,9.6,9.3-.1.9-.2,2-.2,3-1.7-.5-3.5-.9-5.2-1.3-.3-.3-.5-.6-.8-.8,0,0-.2.4-.2.5-2.6-.6-4.9-1.2-6.4-2.2-.1,0-.2,0-.4-.2.7-2.8-1.8-6.8,3.7-8.4ZM915.4,874.6c1.7,1.2,3.6,2.3,5.6,3.4,1.7,4.9,5.1,8.1,12.7,5.9,1.5,2.3,1.1,2.5-.4,3.7-5.5,1.5-6.2,4.4-6.2,7.6-.1,0-.2,0-.3,0-7.2-1.6-12.9-14.5-13.2-16.9.6-1.2,1.2-2.4,1.8-3.7ZM871.1,923.4c1.2-.8,2.5-1.5,3.7-2.3-.7-.8-1.3-1.3-1.9-1.9.4-.3.8-.5,1.2-.8,1,1.4,2.2,2.4,3.5,3.2-.8,1.1-1.6,2.2-2.5,3.3-1-.1-2-.3-3.1-.2-.3-.4-.6-.8-1-1.2ZM881.7,932.5c-2.2-1.3-4.6-2.8-7-4.2,0,0,0-.2.1-.3,2.7,0,4.9,2.6,7.1,2.4-.2.7-.3,1.4-.3,2.1ZM887.5,916.4c.6-.9,1.2-1.6,2.7-2.6-1.6,1.9-1.9,3.1-1.5,4-.4-.5-.8-1-1.2-1.5ZM888.7,917.9c.1.2.3.3.4.5.5.4,1.3.7,2.3,1,0,.6,0,1.3.2,1.9-.8-.9-1.6-1.9-2.5-2.9-.2-.2-.3-.3-.4-.5ZM894.2,945c.3.2.6.2.9.3,0,.4.1.9.2,1.3-.4-.5-.8-.9-1.1-1.6ZM911.2,957.3s0,0,0,0c0,0,0,0,0,0,0,0,0,0,0,0ZM911,910c0-.3-.1-.6,0,0,0,0,0,0,0,0-1.2.6-2.4,1.1-3.6,1.7-2-1.1-4-2.3-5.8-3.6-.5-2.3-.9-4.3-1.1-4.6.7.9,1.7,1.5,2.6,2.1-.8,1.2-.2,1.9,3.1,1.3.6.2,1.1.1,1.7.2,1.1.9,2,1.3,2.8,1.3,0,.5.2,1,.2,1.6ZM903.7,914.9c-.3.4-.6.8-.8,1.3,0-.3-.1-1-.2-1.5.3,0,.7.1,1,.2ZM900.5,892.5c3.2.9,3.1,1.1,3-1.6.4,0,.8,0,1.2-.2,1.2,1.6,2.4,3.1,3.7,4.6-.5.5-1,1-1.5,1.6-1.3-1.1-2.5-2.3-3.4-3.7-1.6,3.7-4.3,2.6-3.1-.7ZM909,921.6c-.1.4-.3.8-.4,1.2-2,.4-4.4,1-6.7,2-.6-1.5-1.8-3.2-3.3-4.9,4.3.1,8.6.3,10.3,1.6ZM898.5,945.3c1.5-.5,3-1.6,4.3-3,.4.6.8,1.1,1.2,1.8-.9.5-1.7.9-2.5,1.4,1.3,1.7,3.2,2.6,5.2,3.1,1.7,3.2,3,6.1,3.5,7-1.4-.4-3.2-.5-5.3-.4-.1-.2-.2-.4-.4-.7-2.1-2.9-4.2-3.8-6.2-5,.1-1.4.1-2.9,0-4.4ZM899.3,965.8c.5,1.1,1.3,2,2.1,2.7-1.5,0-3.1,0-4.6-.1.6-1.2,1.5-1.9,2.5-2.6ZM897.1,928c-.2-.2-.3-.4-.4-.6.3.2.5.1.8.3-.1.1-.2.3-.4.4ZM896.2,903.6c-1-.9-1.9-2.1-2.8-3.1,0,0,0-.2,0-.3,0,0-.1,0-.2,0-.3-.3-.6-.6-.9-1,4.4-2.4,5,.2,3.9,4.3ZM895.2,930.6c-.2,1,0,2.1,1,3-1.2.5-2.2,1.4-2.9,2.4-1.3-3.3-5.2-5.1-2.5-10.5,1.7,1.4,3.2,3.2,4.4,5.1ZM890.9,869.7c.4,0,.7,0,1.1,0-.7.6-1.3,1.2-1.9,1.9-.1-.4-.2-.8-.3-1.2.4-.3.7-.5,1-.8ZM886.8,883.8c.3.2.4.2.7.4.8,2.3,2.3,3.7,4.2,4.3-1.4.5-3.6,1.3-5,3.7-.2-.3-.4-.6-.5-.8,2.3-.6,2.3-5.1.7-7.6ZM885.6,897.4c-.2,2.9-2.7,5.5-4.9,7.9-.8-2.1-1.3-4.1-1.3-6.2,1.6-.2,3.4-.9,5.7-2.4.2.3.4.5.5.8ZM882.9,875.9c-.4,1.5-.6,2.9,0,4.1-.5-.2-.8,0-1.1.4,0-2.8.5-5.6,1.3-8.2,0,1.3-.1,2.7-.1,3.8ZM883.9,865.2c-.2.8-.3,1.7-.4,2.6-1.7-1.6-2.8-3.3-3.5-5.1,0,0,0,0,0,0,2,.7,3.1,1.5,3.9,2.5ZM880.3,852.5c.8.4,1.6.8,2.4,1.2-1.4,2.3-1.7,4.5-1.2,6.5-.8-.2-1.5-.4-2.3-.6-.2-2.2,0-4.5,1-7.1ZM881,914.5c0,.2,0,.4,0,.6,0,.4-.4,1-.6,1.5-.2-.2-.4-.4-.7-.6-.8-.1-1.5-.7-2.4-1,.4-.9.8-1.9,1.3-2.8.4.5,1.2,1.3,2.3,2.2ZM860.9,880.5c-1.3-3.7-2.3-6.4-3.3-9.3,1.2-.9,2.3-1.6,3.4-2.2,1.6.8,3.2,1.4,4.9.9,0-.6-.3-1.5-.5-2.3.2,0,.4-.1.5-.1,1.7,0,3.1,0,4.4-.2.5,1.1,1.2,2.1,1.7,3.3,5.6,14,2.8,14.5,1.7,22.2-.1.5-.2,1-.2,1.5,0,.6-.2,1.1-.2,1.8-.2,4.2,2.8,8.5,5.2,12.3-.6,1.2-.8,2.3-.1,3.4,0,0,0,0,.1.1-.8-.3-1.6-.5-2.3-.7.2-2.9-.9-4.7-6-4.5-.2,1,0,2.4.4,4-3,.3-5,1.6-5.9,3.2-.6-2.7-1.2-5.4-1.9-8.1,1.4-1.8,1.3-4.1-1.4-6.3-.2-1.1-.5-2.1-.7-3.2,3.2-5.2,8.7,0,11.2-6.5-4.8-8.4-8.7-6.4-13.9-1.2-1.2-2.6-2.6-5.1-4-7.8,2.1-.5,4.7-.2,6.9-.3ZM855.4,892.3c0,.2.2.3.2.5-.5.5-.8,1-.9,1.5-.4-.4-.8-.8-1.3-1,.7-.3,1.4-.7,2-1ZM850.8,883.9c.1.2.3.5.4.7-.2-.1-.5-.2-.6-.3,0-.2.2-.2.2-.4ZM824.6,921c.1.6.3,1.3.4,1.9-.4-.4-.9-.8-1.4-1.2.3-.3.7-.5,1-.8ZM821.3,945.5c.2,0,.3,0,.5,0,0,.1,0,.3,0,.4-.2-.1-.3-.2-.5-.4ZM819.8,919.6s0,0-.1,0c1.2-.1,2.1.6.1,0ZM800.6,909.5c.8.6,1.6,1.4,2.3,2.3-1.4,5,.9,9.2,4.6,12.4,0,.6,0,1.3,0,1.8.9.2,1.7,0,2.6.1,3.8,2.5,8.3,4.1,12.3,4.6-.3,1.3-.5,2.7-.6,4.3-2.1,1.1-4.7,1.5-5.5,5.2-3.7-3.7-7.7-4.2-10.4-3.4.3-1.1.7-2.2,1-3.2-4.4-1.1-6.1-4.3-7-8.1.4,1,.9,1.2,3.1.1-3.2-7.3-4.2-8.3-2.3-16ZM772,972.3c1.2-.2,2.4-.7,3.7-1.1,0,1,0,1.9,0,2.5,2.8,10.7,8.1.5,10.9.4,0,1.4,0,2.5.2,3.7-6.1,2.7-13.1,2.9-14.8-5.4ZM778.1,958c.3,0,.7-.1,1-.1-.2.2-.5.4-.7.7-.1-.2-.2-.4-.4-.5ZM796.2,974c-.6-.3-1.2-.5-1.9-.6-5.3-1-8-3-10.1-5.8,1.6-.9,3.2-1.8,4.8-2.7,1.9,1,4.1,1.1,6.4.7.1,2.7.3,5.8.8,8.4ZM783.9,956.7c.8-.4,1.7-.8,2.5-1.3v2.8c-.4.1-.8.2-1.2.3-.4-.6-.9-1.2-1.3-1.8ZM774.2,925.4c.2,0,.4,0,.6,0,4.8.8,9.8,5.5,14,9.1-.5,1.9-.6,3.8.6,5.4,1.4,2,3.4,2.3,5.5,1.8,1.1,4.6-1.3,9.8-4.9,10.3.9-1.1,1.7-2.3,2.3-3.5-5.8-3.4-17.4-4.3-17.1,5.2-1-7.2-2.1-14.3-3.1-21.5-.6-4.2.6-5.7,2.3-7ZM769.4,938.3l1.3,9c-1.2-2.9-1.7-6.2-1.3-9ZM764.7,930.4c.7,3.3,1.2,6.8,1.7,9.4-1.2-2.4-2.7-3.4-4.1-3.6.5-2.2,1.4-4.1,2.4-5.8ZM691,955.2c-3,1.3-6.1,1.3-8.8,2.3,2.8-1.5,5.7-1.8,8.8-2.3ZM679.3,959.6c2.9,1.7,4.6,4.5,6.4,7.2-2.1,1.1-3.3,2.1-3.9,3-.3-3.7-6.8-5.5-2.5-10.1ZM581.8,996.7c-.5-.8-1.2-1.7-2-2.6.7-.5,1.6-1,2.7-1.1,0,.6,0,1.1,0,1.6-.3.9-.6,1.7-.7,2.1ZM583.3,976.6c-3.8-.5-5.1,2-6.5,4.7,0,0-.1,0-.2,0,.9-2.9.7-5,0-6.7,1.1,0,2.1,0,2.9-.3,7.8-2.6,3.1-8.7,8.2-11.9-.8,1.8-1.6,3.6-2.3,5.5-1.1,3.1-1.1,6.2-1.9,8.6ZM581.1,959.4c.9.2,2,.1,3.7-.4-.5,1.2-1.7,1.9-3.3,2.5,0-.8-.1-1.6-.4-2.2ZM585,986.7c-.8-.9-.6-2.4,1-4.6-.2,1.4-.5,3-1,4.6ZM586.9,987.8c.4-1.3.8-2.6,1.2-3.9.1,0,.1.3.3.4.4,1.3.9,2.7,1.3,4-1,0-2-.2-2.8-.4ZM620.7,967.2c-2.4-1.1-4.6-.9-6.8.5.7-1.4,1.7-2.4,2.9-3.2,1.3.3,2.9-.1,4.6-.9-.2,1.2-.5,2.4-.7,3.6ZM623,981.5c.6-.9,1-2,1.3-3,1.3,1.1,2.1,2.8,2.1,5.5-.7-1-2-1.8-3.4-2.5ZM626.3,971.5c-1.6-2,0-2.9,0,0h0ZM662.1,1007c0,1,0,2,.2,2.9-.8-.3-1.4-.6-2.3-.8,0,.3,0,.4-.1.7-.5-1.1-1-2.2-1.2-3.4,1,.3,2.2.5,3.5.6ZM652.1,956h0c0,0,0,0,0,0,0,0,0,0,0,0h0s0,0,0-.1c0,0,0,0,0,0ZM649.3,946.5l1.3,4.4c-.3.3-.6.3-1,.8-.8-2-.7-3.6-.3-5.1ZM643.3,930.2c1.1,3.6,1.9,7.3,2.6,11.1-2.1-.9-4.9-3.1-6.3-5.9,1.6-1.7,2.8-3.5,3.7-5.2ZM615.7,928.2c.4,6.1,2.9,12.5,7.9,13.1,9.1,1.2,2.9-4.4,12.3.8,2.4,1.4,7.1,2.2,10.3.9,0,0,0,0,0,.1,1,7.2,9.8,20.9,3.7,26.3,9.4,1.1,6.8,24.6,5.9,31-.1.2-.2.4-.4.5,0-.1.2-.3.4-.5,0,.1,0,.3,0,.4,0,0,0,.2,0,.3,0,0-.1,0-.2-.1-2.2-2.5-4.6,1.5-6.4,5.2-.9-1.2-1.8-2.3-2.7-3.4,2.1-1.4,3.9-3.2,4.7-4.7-1.6-.9-6-1.9-10-2.1-1-1.4-2-2.9-3-4.5,1.4-2.5.7-1.4,0,0,0,0,0,0,0,0,3.3-6.2-.5-10-5.5-11.9-.8-2.4-1.4-4.8-1.6-7.1,7,2.2,9.1-7.5,1.5-8.8,0-.1,0-.2.1-.3-2.7-.5-4.8-1.5-6.7-2.8,2.6-2,4.9-4.3,5.6-5.7-3.3-1.9-8.5-3-12.3-1.8-2.9-5.2-4.8-11.5-7.8-17.2,4.1,1.2,3.2-4.1,4.3-7.8ZM615.6,955.8c-.8,1.1-1.3,2.5-1.2,4.5,0,.3.2.5.2.8-.2.4-.2.7-.4,1.1.1-.2.3-.4.5-.7,0,0,0,0,0,0-.2.2-.3.4-.5.7-1.2,1.8-1.8,3.2-2.3,4.5-2.3-6.4-3.3-12.6-3-19.5.7-.6,1.5-1.2,2.1-1.8,2.1,3.4,4.4,6.8,4.7,10.4ZM609.9,912h.8c-.1.7-.2,1.5,0,2.5-.9-.5-1.7-1.3-2.4-2,.6-.1,1.1-.3,1.7-.5ZM600.7,975.5c-2.6-1.3-6.8-1.5-10.2-.1.2-.8.4-1.6.6-2.4.4-1.2.6-2.4.7-3.7.1-.7.3-1.5.4-2.2,4,11.4,8.9-1.8,5.6-10.3.6-.6,1.4-1.2,2-1.8,2.3,3.3,5.3,6.5,6.2,8.3,5.2,10.7.3,5.1-5.3,12.3ZM604.1,942.2c-.9,1.5-2,2.8-3.7,3.2-3.8.8-4,3.1-2.9,5.8-1.7,1.6-3.1,3.4-3.7,5.8-.2.1-.5,0-.7.2.5-7.6,1.9-18.2,8.2-23.4-1.7,3.8-3,10.9,2.9,8.5ZM606.1,933.8c-.5-.8-.8-1.5-1-2.3.4-.1.7-.4,1.1-.5,0,.9,0,1.8-.1,2.8ZM585.8,927c.3-.7.7-1.3,1-2.2.3,0,.6,0,.9,0,2.9,3.5,9.4-1.9,10.6-4.9-.3,0-.7,0-1,0,1.6-2.4,2.7-5.1,5-7,2.6,3.1-.6,6.5,3.8,7.7,0,.2,0,.3,0,.4,0,.7-.3,1.3-.4,1.9-.8.5-1.6,1-2.4,1.5-.4-1.5-1.2-2.8-2.6-3.9-1.7,1.8-4.6,6.4-3.9,9.5-.3.4-.5.8-.8,1.2-3,0-5.3.5-5.9,2.6-1-.9-2.9-1.5-5.1-2l.9-4.7ZM582,944.7c1.4.2,2.9.4,4.7.3,1.2-.5,2.4-.9,3.7-1.4-.7-1.6-1.5-2.9-2.3-4,.7-.7,1.3-1.5,2-2.4,0,.3,0,.5.1.9,1.3,0,2.4-.4,3.4-.8-1,4.2-1.7,8.4-3.8,10.1-3.1,2.5-12.8,2.7-16.3,3.3,4.2.6,4.2,4,5.1,6.4-2.7-.9-6.7,0-8.9,1.6-.3-1.6-1.2-4.5-2-7.8,5.3-3,9.8-3.7,14.3-6.3ZM571.4,965.4c-.7.5-1.2,1.1-1.7,1.9-.2.3-.2.5-.3.8-2.1-1.7-3.8-3.7-4.2-7,1.6,1,3.8,2.8,6.1,4.4ZM552.7,979.4c-1-.9-1.9-1.5-2.7-1.9.6-.8,1.1-1.6,1.5-2.7-3.6-1.2-8-2-11.8-1.1,2.4-2.6,3.9-5.7,4.2-9.2.2,3.8,3.9,7.2,7.3,7.9.6,2,1.4,4.1,2.2,5.8-.3.4-.5.7-.8,1.1ZM555.9,976c.4-1.7.6-3.1.6-4.3.4,1.5,1,3,1.5,4.4-.7-.2-1.5-.3-2.1-.1ZM559.4,942.9c.6,0,1,.2,1.6.3-.9,1.4-1.2,2.8,0,3.7.4.3.7.4,1.1.6-.8.6-1.8,1.2-2.9,1.8-.5-.4-.9-.8-1.4-1.1.6-1.7,1.2-3.4,1.7-5.1ZM556.1,950.4c-1.8.6-3.5,1.2-4.7,1.6,7.1,3.8,6.6,6.9,7.6,13.4-1.4-.2-2.8-.4-4.2-.6.2,1,.5,2.8,1.1,4.8-.4-.6-1.1-1.1-2.1-1.3.2-2,.6-3.8-.5-6.3,5.4-5.2-1.9-6.5-3.6-10.5,2.1-.4,4.3-.8,6.4-1ZM546.5,955.7c-1-.2-1.9-.3-2.9-.4,1.1-.9,2-.7,2.9.4ZM543.2,955.5c.2,2.4.9,5,.7,7.4-.2-.9-.4-1.9-.6-2.8-1.5.5-3,1.1-4.4,1.9.6-2.7,2-4.9,4.3-6.5ZM516,1000.4c3.9,3.4,7.2,6.8,10.5,10.7-4-.7-11-1.1-12.9,3.9-12.3-1.9,0-4.4-6.1-10.4-5.4-5.4,8.4.5,8.6-4.2ZM487.8,971.6c.6-.3,1-.8,1.6-1.2-.4,2.1-.9,4.3-1.7,7.1-1.2-2-2.3-3.9-3.8-4.5,1.2-.3,2.5-.7,3.9-1.4ZM479.9,972.8c.5.2,1,.4,1.6.4-.6.2-1.1.3-1.7.9,0-.4,0-.8,0-1.3ZM461.5,960.5h.2c0,.1-.2.2-.3.2,0,0,0-.1,0-.2ZM396.9,980.2c.1.3.1.6.4.8-.3.2-.6.4-.9.6.1-.5.3-.9.4-1.4ZM393,992.8c.1.3.2.5.3.8-.2,0-.3,0-.5-.1,0-.2.1-.5.2-.7ZM380.9,1007.7s0,.1,0,.2c-.2,0-.5,0-.7.1.2-.1.4-.2.6-.3ZM247.3,956.2c.3-.2.6-.2.8-.6,0,0,0-.1,0-.2.4.1.9.3,1.2.4-.6,0-1.3.2-1.9.4ZM251.9,956c-1.4-.2.4-.4,0,0h0ZM258.1,965.8c-.7-1.5-1.4-3-1.9-4.3,1.4-.8,2.8-.5,4,1.1-.5.9-1.3,2-2.2,3.2ZM263.2,949.6c.3-.2.4-.4.6-.6,0,.3.1.6.2.9-.3,0-.5-.3-.8-.3ZM263.7,927.8c.4-.4.8-.7,1.1-1.2.2,0,.5.2.7.3.3,0,.5,0,.8,0l.6.8,7.2.2c-2.4,5.6-4.6,11.5-4.3,14.6-1.6,1.1-2.8,1.8-3.8,2.2-.9-.7-1.9-1.4-3-2.2,0-4.3,3.9-12.7,3.9-14.8-1,0-2.1.1-3.2.2ZM257.7,957.3c-1,.1-1.7.4-2.3.6,0-1,.2-1.6.9-1.6,1.4-1.2,2.7-2.4,4-3.8.1,1.5.5,2.7,1,3.8-.9.4-2.1.7-3.6,1ZM254.7,913.6c.3,0,.5,0,.7,0l.2.2c-.7,4.3-1.6,9.1.4,13.1.4.8.9,1.2,1.4,1.7-2.1.4-4.1,1-5.8,2.2-6.8,5.3,3.7,11.6,9.1,9.4-1.9,8.1-7.2-1.1-10.8-1.8-2.3-4.8-7.2-10.5-12.6-7.5,7.2-9.7-7.6,3.4,1.1-6.7,2.3-2.7,2.2-6.9,1.3-10-1.6.6-3.2,1.2-4.8,1.7,2.2-16.3,13,7.4,19.8-2.2ZM233.5,936.6c1.2,5,8.8,5.7,14,5,.2,1.6,1,3,2.7,4,0,0-1.7,3-2.7,4.8-1.6-4-5.9-6.4-10.2-8-1,3.5-1,8.3,1.7,11.2-6.3-3-6.7-10.1-5.5-16.9ZM228,895.2c.2,0,.5,0,.7,0,.3.9.7,1.8,1.2,2.7-1-.5-1.9-1.3-2.7-2.5.3-.1.5-.2.8-.3ZM225.4,889c0,.3,0,.5.1.8-.4.3-.8.4-1.2,1-.3-.7-.2-1.3-.3-1.9.5.2,1,.2,1.4.2ZM219.1,885.5c1.2,1.1,2.4,2.1,3.6,2.8.8,2.1,1.6,4.3,2.3,6.5-3.6-.6-6.1-3.1-7.4-7.4,0-.3-.4-1.6-.9-3.2l2.4,1.3ZM172.9,907c.3-.2.5-.4.8-.6.6,0,1.1,0,1.7,0-.6,2.2-2.3,3.2-4.5,3.7.8-.4,1.5-1.5,2-3.1ZM155.3,912.9c5.6-2.8,2.2-8.2,6.9-11.2h.5c.3.4.5.6.8.9-.2,1-.1,2.1.3,3.1-.5,3.9-1.8,7.6-4.4,10.2.6.1.9.6,1.2,1.2-1.3.5-2.6,1.1-3.9,1.7,1.2-1.3,2.2-2.4,2.7-2.9-2.5-.7-4.1-.3-5.2.6.5-1.2.8-2.4,1.1-3.7ZM106.5,891l.3.3c.2.9.4,1.8.6,2.7-1.5,1.3-3.1,2.6-4.6,3.9-3.6-4.1,1.6-4.6,3.7-6.9ZM43.4,802.7c2.8.9,5.8,1.5,8.9,1.8.2.3.3.7.6,1-3.4-.7-6.8-.7-10.2.1.3-1.1.5-2.1.7-3Z" fill="#70ba2b"/>
  <path d="M1690.3,383.6s0,0,0,0c0,0,0,0,0,0,0,0,0,0,0,0Z" fill="#70ba2b"/>
  <path d="M1690.3,383.6c-.4.3-.6.5,0,0h0Z" fill="#70ba2b"/>
  <path d="M129.8,920.3c-.3-.4-.5-.6,0,0h0Z" fill="#70ba2b"/>
  <path d="M130.6,921.3s0,0,0,0h0Z" fill="#70ba2b"/>
  <path d="M888.7,917.9c.1.2.2.4.4.5-.1-.2-.3-.3-.4-.5Z" fill="#70ba2b"/>
  <path d="M170.4,910.3c.1,0,.2,0,.3,0-.1,0-.2,0-.3,0Z" fill="#70ba2b"/>
  <polygon points="129.8 920.3 129.8 920.3 129.8 920.3 129.8 920.3" fill="#70ba2b"/>
  <path d="M1763.3,65.7c-1,6.5,1-6.5,0,0h0Z" fill="#70ba2b"/>
  <path d="M1756.4,42.6c-.4-.3-.6-.4-.8-.5.2.1.5.3.8.5-6.1-4.2-12-.5-16.6,3.9,6.5,5.8,20.5-1.2,16.6-3.9.4.3.8.6,1,.7,0,0-.4-.3-1-.7Z" fill="#70ba2b"/>
  <path d="M1755.6,42.1c0,0,0,0-.1,0,0,0,0,0,.1,0Z" fill="#70ba2b"/>
  <path d="M1819.9,36.8c8,4.5,9.6-9.5,3.7-13.2,14.5-3,1-13.9-9.9-3.6,1.4,1.1,3,2,4.6,2.7-2.4.4-4.8.8-7.2,1.3,2.3,4.3,4.2,10.3,8.7,12.8Z" fill="#70ba2b"/>
  <path d="M1798.6,31.2c-6.6,6.2-6.8,12.3,2.2,15.5,3.9-5.2,2.5-11.5-2.2-15.5Z" fill="#70ba2b"/>
  <path d="M1803,13.9c-1.7-4.2,2.4,5.9,0,0h0Z" fill="#70ba2b"/>
  <path d="M1764.8,28.9c-10.6,10,3.3,21.3,4.6,9,.4-3.5-2-7-4.6-9Z" fill="#70ba2b"/>
  <path d="M1831.8,113.3c-.6,2.7-.8,9.4,2.3,10.9-2.3.7-4,2.1-5.1,4.2-1.1-2.3-3.3-3.7-5.6-4.6,4.7.3,9.9-11.5,3.4-9.1,4.4-8.6-13-10.8-17.3-4.7,3.9,2.6,8.2,7.1,13.2,7-1.8,1.6-3.2,4.9-.5,6.4-13.6-3.8,12,24.9,7.9,8.2,3.6,5,14.4-18.2,1.6-18.4Z" fill="#70ba2b"/>
  <path d="M1842.8,106.5c1.7,5.3.7-.9,0,0h0Z" fill="#70ba2b"/>
  <path d="M1824.3,107c3.6,2.1,22.8,12.6,18.5-.5,1.5-1.9-3.1-4.9-4.9-5.7-5.4-2.3-10.4,2.4-13.6,6.2Z" fill="#70ba2b"/>
  <path d="M1812.3,101.6c6.1,1.1,15.2-2.8,13.8-10.5-1.7-9.3-13.2,8.1-13.8,10.5Z" fill="#70ba2b"/>
  <path d="M1794.2,122.3c-1.3-3-.7-1.5,0,0-4.2-9.5-13.7-3.8-18.1,1.6,4,2.3,24.1,12.3,18.1-1.6.6,1.5,1.3,2.9,0,0Z" fill="#70ba2b"/>
  <path d="M1760.4,252.7c-2.2-9.2-12.7,8.8-13.2,11.2,6.1.8,15-3.6,13.2-11.2Z" fill="#70ba2b"/>
  <path d="M1781,194.2c9.2,5.1,10.5-16.2-.8-14.2.9-.2,1.8-.3,0,0-2.6.5-5.3.9-7.9,1.4.7,6.6,2.9,9.6,8.8,12.9Z" fill="#70ba2b"/>
  <path d="M1762.6,208.3s-1.3-.5-2-.7c.4.1,1,.4,2,.7Z" fill="#70ba2b"/>
  <path d="M1762.6,208.3c3.2-4,9.3-8.2,8.3-14.1-4,3.5-8.3,4.1-10.5-1.4-6.7,6.2-6.8,12.3,2.2,15.5Z" fill="#70ba2b"/>
  <path d="M1678,431c-6.1,2.9-6.7,10.5-13.8,8.7.1,19.6,23.1,7.9,13.8-8.7Z" fill="#70ba2b"/>
  <path d="M1704.3,396.3c-4.7-9.3-13.9-3.1-18,2.6,4.1,2.1,24.9,11.2,18-2.6Z" fill="#70ba2b"/>
  <path d="M1703.6,394.8c.1.3.4.7.7,1.4,2.1,4.1-.2-.4-.7-1.4Z" fill="#70ba2b"/>
  <path d="M1682.3,392.7s0,0,0,0c3.8-1.5.4-.1,0,0Z" fill="#70ba2b"/>
  <path d="M1682.3,392.7s0,0,0,0c0,0,0,0,0,0Z" fill="#70ba2b"/>
  <path d="M1844.1,121.4c-1.7-.4-3.4-.8-5.2-1.3-1.7,20.1,14.5,3.5,5.2,1.3Z" fill="#70ba2b"/>
  <path d="M1844.1,121.4c2.5.6-2.5-.6,0,0h0Z" fill="#70ba2b"/>
  <path d="M1840.5,116.3c.9,1.6,2.1,3,3.6,4.2-.6-.4-1.1-.9,0,0,1.1.9.6.4,0,0,7.7,5.9,9.1-10.2-3.6-4.2Z" fill="#70ba2b"/>
  <path d="M1773.6,214c2.6-1.7,6.1-10.3,6.3-12.7,0-4.4-2.3-7-6.6-7.8-.6,2.7-.8,9.4,2.3,10.9-4.5,2.7-7,4.8-2.1,9.5Z" fill="#70ba2b"/>
  <path d="M1779.9,201.3c-.3,2.4.4-3.7,0,0h0Z" fill="#70ba2b"/>
  <path d="M1785.6,201.6c-1.7-.4-3.4-.8-5.2-1.3-1.7,20.1,14.5,3.5,5.2,1.3Z" fill="#70ba2b"/>
  <path d="M1782,196.5c.9,1.6,2.1,3,3.6,4.2,7.7,5.9,9.1-10.2-3.6-4.2Z" fill="#70ba2b"/>
  <path d="M1775.1,282.8s0,0,0,0c1.1.3.6.1,0,0Z" fill="#70ba2b"/>
  <path d="M1775.1,282.8s0,0,0,0c-1.7-.4-3.4-.8-5.2-1.3-1.7,20.1,14.5,3.6,5.2,1.3Z" fill="#70ba2b"/>
  <path d="M1759.5,268.7c1.3.6,5.4,3.5,6.6,3.4,17.5,12.2,9.8-25.8-6.6-3.4Z" fill="#70ba2b"/>
  <path d="M1774.8,281.7c-.8-.6-.5-.3,0,0h0Z" fill="#70ba2b"/>
  <path d="M1771.4,277.6c.9,1.6,2.1,3,3.6,4.2,0,0-.1,0-.2-.1,0,0,.1,0,.2.1,0,0,0,0,0,0,7.7,5.9,9.1-10.2-3.6-4.2Z" fill="#70ba2b"/>
  <path d="M1775,281.9s0,0,0,0c.6.4,1.1.9,0,0Z" fill="#70ba2b"/>
  <path d="M1748.5,238.3c.6,1.5,1.3,3,0,0-1.3-3-.7-1.5,0,0-4.2-9.6-13.7-3.8-18.1,1.6,4,2.3,24.1,12.3,18.1-1.6Z" fill="#70ba2b"/>
  <path d="M1679.4,452.9c4.2,2.5,8.7,6.7,13.9,6.2,9.7-.9-5.2-20-13.9-6.2Z" fill="#70ba2b"/>
  <path d="M1693.9,449.1c4.1,2.1,24.9,11.2,18-2.6-4.7-9.3-13.9-3.1-18,2.6Z" fill="#70ba2b"/>
  <path d="M1711.9,446.5c2.9,5.8-2.9-5.8,0,0h0Z" fill="#70ba2b"/>
  <path d="M1690.8,465.3c0,2.4,0,4.7-.2,7.1,0-.2,0-.4,0-.6,0,0,0-.1,0-.2,0,0,0,.2,0,.2,0,.2,0,.3,0,.6-.3,6.3,11.6,7,11,2.6-.8-5.8-5.2-9.2-10.8-9.7Z" fill="#70ba2b"/>
  <path d="M1690.6,471.7c0,0,0-.2,0-.2,0,0,0,.2,0,.2Z" fill="#70ba2b"/>
  <path d="M1690.6,473.1c0-.2,0-.3,0-.7,0,0,0,0,0,0,0,.3,0,.5,0,.7Z" fill="#70ba2b"/>
  <path d="M1684.1,437s0,0,0,0c.3-1.7.1-.8,0,0Z" fill="#70ba2b"/>
  <path d="M1694.5,436.6c2.5-8.5-9.6-4.9-10.5.4,0,0,0,0,0,0-.5,2.5-1.3,4.9-2.4,7.3,5.9.7,11.2-1.8,12.9-7.6Z" fill="#70ba2b"/>
  <path d="M1582.5,609c-3,14.3,14.9,15.6,8.9,4.7-1.7-3-5.6-4.6-8.9-4.7Z" fill="#70ba2b"/>
  <path d="M1591.5,613.8c.6,1.1,1.1,2,0,0h0Z" fill="#70ba2b"/>
  <path d="M1591.2,613.3c0,.2.1.2.2.4,0,0,0,0,0,0,0-.2-.2-.3-.3-.5Z" fill="#70ba2b"/>
  <path d="M1584.7,575.3c-1,0-1.9,0,0,0h0Z" fill="#70ba2b"/>
  <path d="M1584.9,575.3c1.5,0,.9,0,0,0h0Z" fill="#70ba2b"/>
  <path d="M1558,627.5c-.4-.2-.6-.3-.8-.3.2,0,.5.2.8.3Z" fill="#70ba2b"/>
  <path d="M1548.7,615.4c2.5,4.2,4.5,10,9.3,12.1,0,0,0,0,0,0,0,0,0,0,0,0,1.9.8.9.4,0,0,8.7,3.7,4.6-20-9.3-12.1Z" fill="#70ba2b"/>
  <path d="M1576,617.3c2.5,1.3.6-.2,0,0h0Z" fill="#70ba2b"/>
  <path d="M1548.7,621.5c2.7,8.3,1.1.8,0,0h0Z" fill="#70ba2b"/>
  <path d="M1751.1,292.6c-.2.2-.3.3,0,0h0Z" fill="#70ba2b"/>
  <path d="M1751.5,292.3s0,0,0,0c-.2.1-.3.2-.4.3.1,0,.3-.2.4-.3Z" fill="#70ba2b"/>
  <path d="M1552.9,631.7c-5.8,7-5.2,13,4.1,15.1,5.1-4.1-.3-12.7-4.1-15.1Z" fill="#70ba2b"/>
  <path d="M1722.1,332.8c.1.3.3.7.7,1.3,0,0,0,0,0,0-.3-.6-.5-1-.7-1.3Z" fill="#70ba2b"/>
  <path d="M1722.8,334.2s0,0,0,0c1.4,2.9.7,1.4,0,0Z" fill="#70ba2b"/>
  <path d="M1696.7,360.4s0,0,0,0c0,0,0,0,0,0,0,0,0,0,0,0Z" fill="#70ba2b"/>
  <path d="M1696.7,360.4c-.5.4-.9.7,0,0h0Z" fill="#70ba2b"/>
  <path d="M1625.3,471.3c0,.2-.1.7-.3,1.7,0,0,0,0,0,0,.1-.8.2-1.5.3-1.7Z" fill="#70ba2b"/>
  <path d="M1624.9,473.5c0,.5-.1,1-.2,1.2,0-.2,0-.5.2-1.2Z" fill="#70ba2b"/>
  <path d="M1625,473s0,0,0,0c0,.2,0,.3,0,.5,0-.2,0-.3,0-.5Z" fill="#70ba2b"/>
  <path d="M1712.1,304.7s0,0,0,0c.6-.4,1.2-.7,0,0Z" fill="#70ba2b"/>
  <path d="M1712.1,304.7s0,0,0,0c-.2.1-.3.2-.4.3.1,0,.3-.2.5-.3Z" fill="#70ba2b"/>
  <path d="M1711.7,305c-.3.2-.4.2,0,0h0Z" fill="#70ba2b"/>
  <path d="M1707.3,287.5c-2.2,3.9-5,22.9,4.8,17.2,0,0,0,0,0,0,0,0,0,0,0,0,6.6-3.9-.4-14.8-4.9-17.2Z" fill="#70ba2b"/>
  <path d="M1718.1,298.2c-3.2,8.5-.7,14,8.8,13,1.2-6.4-2.8-11.5-8.8-13Z" fill="#70ba2b"/>
  <path d="M1723.3,361.9c1.4,4.4,9.7,25.5,14.5,10.9-.5,1.5-1,3.1,0,0,1-3.1.5-1.6,0,0,3.3-9.9-7.6-12-14.6-10.9Z" fill="#70ba2b"/>
  <path d="M1699.4,384.3s0,0,0,0c1.1.5.5.2,0,0Z" fill="#70ba2b"/>
  <path d="M1699.4,384.3c-1-.4-.5-.2,0,0-1.5-.7-2.9-1.6-4.3-2.7-5.1,15.3,13.8,6.8,4.3,2.7Z" fill="#70ba2b"/>
  <path d="M1680.7,310.2s0,0,0,0c.6-.9,1.2-1.8,0,0Z" fill="#70ba2b"/>
  <path d="M1680.7,310.2s0,0,0,0c-1.2,1.8-.6.9,0,0Z" fill="#70ba2b"/>
  <path d="M1508,681.9c.1-.4.3-.8.4-1.1,0,.3-.2.6-.4,1.1,0,0,0,0,0,0Z" fill="#70ba2b"/>
  <path d="M1508.4,680.8c0-.1,0-.3.1-.4,0,.1,0,.2-.1.4Z" fill="#70ba2b"/>
  <path d="M1508,681.9s0,0,0,0c-1,3-.5,1.5,0,0Z" fill="#70ba2b"/>
  <path d="M1493.4,671c1.4,4.4,9.7,25.4,14.5,10.9t0,0s0,0,0,0c3.3-9.9-7.6-12-14.6-10.9Z" fill="#70ba2b"/>
  <path d="M1505.4,660.3c5-8.1-15.2-2.8-17.2-1.4,3.8,4.9,13.1,8.1,17.2,1.4Z" fill="#70ba2b"/>
  <path d="M1473.2,713.9c.3,1.8.7,3.5,1.4,5.1-2-1.4-4-2.8-6-4.2-1.4,4.7-4.3,10.2-2.9,15.3,2.5,8.8,13.5,0,12-6.7,12.4,8.1,10.5-9.1-4.5-9.6Z" fill="#70ba2b"/>
  <path d="M1445.2,723.7c6.4-.9,9.9-6.4,9.4-12.6-9.1-.3-13.5,3.9-9.4,12.6Z" fill="#70ba2b"/>
  <path d="M1469.9,702c1.8-4.2-2.5,5.9,0,0h0Z" fill="#70ba2b"/>
  <path d="M1432.6,795.7c-2.6,5,1.1-.1,0,0h0Z" fill="#70ba2b"/>
  <path d="M1419.1,782.9c1.1,4,7.1,25,13.5,12.7,2.4-.3,1.3-5.7.6-7.5-2.2-5.5-9.1-5.7-14-5.3Z" fill="#70ba2b"/>
  <path d="M1431.7,773c5.4-7.8-15-3.6-17.1-2.4,3.5,5.1,12.7,8.8,17.1,2.4Z" fill="#70ba2b"/>
  <path d="M1129.7,902.6c-.2.6-.3.9-.4,1.2.5-1.5,1.7-5.2.4-1.2Z" fill="#70ba2b"/>
  <path d="M1116.7,884.5s0,0,0,0c3.8,1.6.3.1,0,0Z" fill="#70ba2b"/>
  <path d="M1116.7,884.5s0,0,0,0c0,0,0,0,0,0Z" fill="#70ba2b"/>
  <path d="M1496.4,640.7c-2.1,6.2,2.1-6.2,0,0h0Z" fill="#70ba2b"/>
  <path d="M1420.2,802.6c-15.4,13,7.8,12.8,2.8,4.5-.9-1.5-1.8-3-2.8-4.5Z" fill="#70ba2b"/>
  <path d="M1423,807.1c1.3,2.2-1.3-2.2,0,0h0Z" fill="#70ba2b"/>
  <path d="M1424,801c-.5,1.8-.6,3.6-.4,5.5,0-.7-.2-1.4,0,0,.2,1.4,0,.7,0,0,1.3,9.6,13.6-.7.4-5.5Z" fill="#70ba2b"/>
  <path d="M1085.1,932.6c1.4,4.4,9.7,25.5,14.6,10.9,3.3-9.9-7.6-12-14.6-10.9Z" fill="#70ba2b"/>
  <path d="M1099.6,943.5c-2.1,6.2,2.1-6.2,0,0h0Z" fill="#70ba2b"/>
  <path d="M1066.3,946.7c.2-.2.4-.4.6-.5-.2.2-.3.3-.6.5-4.7,4.2,3.2,13.1,5.9,9.6,3.5-4.7,2.9-10.2-.7-14.5-1.6,1.7-3.3,3.3-5.1,4.8Z" fill="#70ba2b"/>
  <path d="M1065.5,947.4c-.7.6-.5.4,0,0h0Z" fill="#70ba2b"/>
  <path d="M1065.5,947.4c.2-.2.4-.4.8-.7,0,0,0,0,0,0-.3.3-.6.5-.8.7Z" fill="#70ba2b"/>
  <path d="M1473.6,667.4c-1.6-.2-2.3,1.6,0,0h0Z" fill="#70ba2b"/>
  <path d="M860.4,951.8c-3.9,7.8.2,1.3,0,0h0Z" fill="#70ba2b"/>
  <path d="M848.4,975.7c6.5.7,8.8-9.2,7.8-13.6-9.1.8-12.9,5.5-7.8,13.6Z" fill="#70ba2b"/>
  <path d="M1018.6,901.4s0,0,0,0c0,0,0,0,0,0Z" fill="#70ba2b"/>
  <path d="M1019.4,900.8s0,0,0,0c-.3.2-.6.4-.8.6.2-.2.5-.4.8-.6Z" fill="#70ba2b"/>
  <path d="M1018.6,901.4c-.3.2-.4.3-.5.4.1,0,.3-.2.5-.4Z" fill="#70ba2b"/>
  <path d="M1020.9,899.8c-.1.1-.6.4-1.4,1,0,0,0,0,0,0,.6-.5,1.2-.9,1.4-1.1Z" fill="#70ba2b"/>
  <path d="M997.3,883.3c-9.1-.3-13.5,3.9-9.4,12.6,6.4-.9,9.9-6.4,9.4-12.6Z" fill="#70ba2b"/>
  <path d="M987.9,895.8s-.6-1.2-.9-1.9c.2.4.5,1,.9,1.9Z" fill="#70ba2b"/>
  <path d="M633.9,1003s0,0,0,0c-.1-.2-.2-.4-.3-.5,0,.1.2.3.3.5Z" fill="#70ba2b"/>
  <path d="M633.6,1002.6c-.1-.3-.2-.3,0,0h0Z" fill="#70ba2b"/>
  <path d="M633.9,1003.1s0,0,0,0c.4.6.7,1.2,0,0Z" fill="#70ba2b"/>
  <path d="M565.8,1028.7c-.3,0-.6-.2-.8-.3.3,0,.4.1.8.3,3.1,1,1.6.5,0,0,9.9,3.3,12-7.6,10.9-14.6-4.4,1.4-25.5,9.7-10.9,14.5Z" fill="#70ba2b"/>
  <path d="M1239.2,908.1c-3.4-1.1-6.8-2.2-10.2-3.3-3.7,23.5,24.5,11.1,10.2,3.3Z" fill="#70ba2b"/>
  <path d="M1033.2,945.2c-1.4,2.1-6.7,22.2,1.4,17.2,6.6-4.1,3.4-13.4-1.4-17.2Z" fill="#70ba2b"/>
  <path d="M731.6,964.9c-6.2-2.1,6.2,2.1,0,0h0Z" fill="#70ba2b"/>
  <path d="M742.6,951.9c0-.5,0-1.1-.1-1.6-.3,0-.7.2-1.1.4-4.3-2.2-11.6,5.3-13.5,7.2,0,0,0,0,.1,0-2.3,2.4-2.4,5,3.6,6.9,4.2,1.4,6.9.2,8.7-2.1,1.1.4,2.3.9,3.4,1.3,0-.3,0-.6,0-1,.4,2.1,1.4,4,3.6,5.3,8.1,5,2.8-15.2,1.4-17.2-2.1,1.7-3.9,4.4-4.7,7.3,0-2-.3-3.9-.8-5.9-.2-.3-.4-.5-.6-.7Z" fill="#70ba2b"/>
  <path d="M1206.5,911c-3.6-2.1-9.1-1.9-13.1-1.1,3.6,17,23.9,7.3,13.1,1.1Z" fill="#70ba2b"/>
  <path d="M1206.5,911c4.7,2.7-4.7-2.7,0,0h0Z" fill="#70ba2b"/>
  <path d="M1578.3,528.3c-1.9,2.1-.9,1.1,0,0-1.5,1.8-3.2,3.5-4.8,5.1,4.3,3.6,9.8,4.3,14.5.7,3.5-2.6-5.4-10.6-9.6-5.9Z" fill="#70ba2b"/>
  <path d="M1578.9,527.6c-.2.2-.4.5-.7.7,0,0,0,0,0,0,.3-.3.5-.6.6-.7Z" fill="#70ba2b"/>
  <path d="M1578.9,527.6c0,0,.1-.1.1-.2,0,0,0,.1-.1.2Z" fill="#70ba2b"/>
  <path d="M1028.4,920.5c2.3-6.4,1.1-17.9-8.3-15.9-10.5,2.2,3.9,14.7,8.3,15.9Z" fill="#70ba2b"/>
  <path d="M1009.2,937.1c8.1,5,2.8-15.2,1.4-17.2-4.9,3.8-8.1,13.1-1.4,17.2Z" fill="#70ba2b"/>
  <path d="M1211.5,886.6c-1.9.7,0,.6,0,0h0Z" fill="#70ba2b"/>
  <path d="M1229.2,879c-.2,1.8-.5,3.5-.7,5.3,20.1-.5,1.9-14.4.7-5.3Z" fill="#70ba2b"/>
  <path d="M1154.7,907.9c.1-.1-.6-1.7,0,0h0Z" fill="#70ba2b"/>
  <path d="M1261,861.6c-1.4.7.1.5,0,0h0Z" fill="#70ba2b"/>
  <path d="M347.1,1011.3c.2-.3.3-.5.4-.6,0,0-.2.2-.4.6Z" fill="#70ba2b"/>
  <path d="M343,995c-2.2,2.4-2.6,5.8-2.1,9-5.3,0-7.6,12.5-9.7,17.5,6.2,1.7,8.3-8.6,10.3-15.1,1.3,4.3,3.9,7.3,5.4,5.2,0-.1.2-.2.2-.3,0,.1-.1.2-.2.3,4.2-6.1.5-12-3.9-16.6Z" fill="#70ba2b"/>
  <path d="M951.6,923.3s0,0,0,0c-.3,0-.5-.1-.7-.2.1,0,.4.1.7.2Z" fill="#70ba2b"/>
  <path d="M951.7,923.3s0,0,0,0c.7.2,1.4.4,0,0Z" fill="#70ba2b"/>
  <path d="M957.6,938.4c5.4-3.7,6.1-10.1,2.9-15.4-8.3,3.8-10.4,9.5-2.9,15.4Z" fill="#70ba2b"/>
  <path d="M920,950.3c.6-.9,1-1.6,0,0-2,3.1-.8,1.3,0,0-5.8,9,13.1,7.6,17.1,5.4-2.9-6.1-11.9-13.4-17.1-5.4Z" fill="#70ba2b"/>
  <path d="M883.5,947.1c2.9,2.1-2.9-2.1,0,0h0Z" fill="#70ba2b"/>
  <path d="M886.3,970.6s0,0,0,0c.4,1.1.2.5,0,0Z" fill="#70ba2b"/>
  <path d="M886.3,970.6c-.4-1-.5-2.1-.7-3.1,4.1-3.1,7.9-14.4-.8-18.7-.4-.6-.8-1.3-1.3-1.7-2.2-1.6-3.7-1.1-4.3.3-1.6-.2-3.4-.3-5.5-.1.8,4.6,3.6,8.6,8.3,9.7-2,.3-3.9,1-4.6,2.5-1.8-3-3.4-4.9-5.6-4.5-.3-3-2-5.9-6.9-7.3-1.2,4.7-3.9,10.3-2,15.1,0-.1,0-.2-.1-.3,0,0,0,.2.1.3.8,1.9.4.9,0,0,1.8,4.4,6.2,1.6,8.1-2.8.5.3,1.1.6,1.6.9-.9,4.8-2.9,10.4-1,15.2,2.4,5.8,7.6,2.9,10.1-1.5,2.6,1.6,6.6,1.2,4.7-3.7-.4-1-.2-.5,0,0ZM880.4,963.6c-.5,0-.8,0,0,0,0,.2,0,.3,0,.5-.3,0-.6,0-.9,0-1.3-.7-2.6-1.4-4-2.1,2.1.9,4,1.5,5,1.6,0,0,0,0,0,0Z" fill="#70ba2b"/>
  <path d="M862.7,962.3c0-.2-.2-.4-.2-.5,0,.1.1.3.2.5Z" fill="#70ba2b"/>
  <path d="M98.3,913.2c-8.9-1.9-13.9,1.5-11.4,10.8.7.7,16-4.2,17.2-4.5-5.5-1.8-8.4-.8-5.7-6.2Z" fill="#70ba2b"/>
  <path d="M629.3,1029.1c5.8-.8,9.3-5.2,9.7-10.8-2.4,0-4.7,0-7.1-.2-6.3-.3-7,11.6-2.6,11Z" fill="#70ba2b"/>
  <path d="M613.4,1009.4c-5.8,2.9,5.8-2.9,0,0h0Z" fill="#70ba2b"/>
  <path d="M540.6,1045.7s0,0,0,0c-2.9,1.4-1.4.7,0,0Z" fill="#70ba2b"/>
  <path d="M541.4,1045.3c-.2.1-.4.2-.7.4,0,0,0,0,0,0,.3-.1.5-.3.8-.4Z" fill="#70ba2b"/>
  <path d="M538,1027.7c-2.1,4.1-11.1,24.8,2.6,18t0,0s0,0,0,0c9.3-4.7,3.1-13.9-2.6-18Z" fill="#70ba2b"/>
  <path d="M556.1,1011.8c-2.9-6.1-11.9-13.5-17.1-5.4.6-.9,1-1.6,0,0-2,3.1-.8,1.3,0,0-5.8,9,13.1,7.6,17.1,5.4Z" fill="#70ba2b"/>
  <path d="M542.8,1015.4c-.8,6.1,3.6,15,11.2,13.2,9.3-2.2-8.7-12.7-11.2-13.2Z" fill="#70ba2b"/>
  <path d="M447.6,993.3c-6.5-1,6.5,1,0,0h0Z" fill="#70ba2b"/>
  <path d="M470.7,986.4c-.3.4-.6.8-.7,1,0,0,.3-.4.7-1,.3-.4.4-.6.5-.8-.1.2-.3.5-.5.8,4.2-6.1.5-12-3.9-16.6-5.8,6.5,1.2,20.5,3.9,16.6Z" fill="#70ba2b"/>
  <path d="M471.2,985.6c0,0,0-.1,0-.1,0,0,0,0,0,.1Z" fill="#70ba2b"/>
  <path d="M490.7,1048.4c-.4-2.4-.8-4.8-1.3-7.2-4.3,2.3-10.3,4.2-12.8,8.7-4.5,8,9.5,9.6,13.2,3.7,3,14.5,13.9,1,3.6-9.9-1.1,1.4-2,3-2.7,4.6Z" fill="#70ba2b"/>
  <path d="M482.1,1028.6c-6.2-6.6-12.3-6.8-15.5,2.2,5.2,3.9,11.5,2.5,15.5-2.2Z" fill="#70ba2b"/>
  <path d="M499.4,1033c4.2-1.7-5.9,2.4,0,0h0Z" fill="#70ba2b"/>
  <path d="M475.5,999.4c3.5.4,7-2,9-4.6-10-10.6-21.3,3.3-9,4.6Z" fill="#70ba2b"/>
  <path d="M389.1,1064.2c-.7-2.3-2.1-4-4.2-5.1,2.3-1.1,3.7-3.3,4.6-5.6-.3,4.7,11.5,9.9,9.1,3.4,8.6,4.4,10.8-13,4.7-17.3-2.6,3.9-7.1,8.2-7,13.2-1.6-1.8-4.9-3.2-6.4-.5,3.8-13.6-24.9,12-8.2,7.9-5,3.6,18.2,14.4,18.4,1.6-2.7-.6-9.4-.8-10.9,2.3Z" fill="#70ba2b"/>
  <path d="M406.8,1072.8c-5.3,1.7.9.7,0,0h0Z" fill="#70ba2b"/>
  <path d="M406.3,1054.3c-2.1,3.6-12.6,22.8.5,18.5,1.9,1.5,4.9-3.1,5.7-4.9,2.3-5.4-2.4-10.4-6.2-13.6Z" fill="#70ba2b"/>
  <path d="M411.7,1042.3c-1.1,6.1,2.8,15.2,10.5,13.8,9.3-1.7-8.1-13.2-10.5-13.8Z" fill="#70ba2b"/>
  <path d="M391,1024.2c-1.5.6-2.9,1.3,0,0,3-1.3,1.5-.7,0,0,9.5-4.2,3.8-13.7-1.6-18.1-2.3,4-12.3,24.1,1.6,18.1Z" fill="#70ba2b"/>
  <path d="M249.4,977.2c-.8,6.1,3.6,15,11.2,13.2,9.2-2.2-8.8-12.7-11.2-13.2Z" fill="#70ba2b"/>
  <path d="M333.4,1010.2c.2.9.3,1.8,0,0-.5-2.6-.9-5.3-1.4-7.9-6.6.7-9.6,2.9-12.9,8.8-5.1,9.2,16.2,10.5,14.2-.8Z" fill="#70ba2b"/>
  <path d="M305,992.6s.5-1.3.7-2c-.1.4-.4,1-.7,2Z" fill="#70ba2b"/>
  <path d="M319.2,1000.9c-3.5-4-4.1-8.3,1.4-10.5-6.2-6.7-12.3-6.8-15.5,2.2,4,3.2,8.2,9.3,14.1,8.3Z" fill="#70ba2b"/>
  <path d="M73.6,894.2c-19.6.1-7.9,23.1,8.7,13.8-2.9-6.1-10.5-6.7-8.7-13.8Z" fill="#70ba2b"/>
  <path d="M114.5,916.3c-2.1,4.1-11.2,24.9,2.6,18,9.3-4.7,3.1-13.9-2.6-18Z" fill="#70ba2b"/>
  <path d="M117.6,934c.4-.2.7-.3.8-.4-.2,0-.5.2-.8.4Z" fill="#70ba2b"/>
  <path d="M117.6,934c-.2,0-.4.2-.6.3-.4.2-.6.3-.9.4.4-.2,1-.5,1.5-.7Z" fill="#70ba2b"/>
  <path d="M116.2,934.7c-.2.1-.4.2-.6.3.1,0,.3-.2.6-.3Z" fill="#70ba2b"/>
  <path d="M115.6,935c-.3.1-.3.2,0,0h0Z" fill="#70ba2b"/>
  <path d="M120.6,912.3s0,0,0,0c1.5,3.8.1.4,0,0Z" fill="#70ba2b"/>
  <path d="M120.6,912.3s0,0,0,0c0,0,0,0,0,0Z" fill="#70ba2b"/>
  <path d="M561.5,1008.3c-5.8,2.9,5.8-2.9,0,0h0Z" fill="#70ba2b"/>
  <path d="M550.7,992.9c-.3,2,1.8,1.3,0,0h0Z" fill="#70ba2b"/>
  <path d="M692.3,971.4c.4-.6.9-1.1,0,0-.9,1.1-.4.6,0,0-5.9,7.7,10.2,9.1,4.2-3.6-1.6.9-3,2.1-4.2,3.6Z" fill="#70ba2b"/>
  <path d="M393.2,1069c-20.1-1.7-3.5,14.5-1.3,5.2.4-1.7.8-3.4,1.3-5.2Z" fill="#70ba2b"/>
  <path d="M391.9,1074.1c-.6,2.5.6-2.5,0,0h0Z" fill="#70ba2b"/>
  <path d="M392.8,1074.1c.4-.6.9-1.1,0,0-.9,1.1-.4.6,0,0-5.9,7.7,10.2,9.1,4.2-3.6-1.6.9-3,2.1-4.2,3.6Z" fill="#70ba2b"/>
  <path d="M319.8,1003.3c-2.7-.6-9.4-.8-10.9,2.3-2.7-4.5-4.8-7-9.5-2.1,1.7,2.6,10.3,6.1,12.7,6.3,4.4,0,7-2.3,7.8-6.6Z" fill="#70ba2b"/>
  <path d="M312,1009.9c-2.4-.3,3.7.4,0,0h0Z" fill="#70ba2b"/>
  <path d="M312.9,1010.4c-20.1-1.7-3.5,14.5-1.3,5.2.4-1.7.8-3.4,1.3-5.2Z" fill="#70ba2b"/>
  <path d="M312.6,1015.5c-5.9,7.7,10.2,9.1,4.2-3.6-1.6.9-3,2.1-4.2,3.6Z" fill="#70ba2b"/>
  <path d="M230.6,1005.1s0,0,0,0c-.3,1.1-.1.6,0,0Z" fill="#70ba2b"/>
  <path d="M230.6,1005.1c.4-1.7.8-3.4,1.3-5.2-20.1-1.7-3.6,14.5-1.3,5.2,0,0,0,0,0,0Z" fill="#70ba2b"/>
  <path d="M244.6,989.5c-.6,1.3-3.5,5.4-3.4,6.6-12.2,17.5,25.8,9.8,3.4-6.6Z" fill="#70ba2b"/>
  <path d="M231.6,1004.9c.6-.8.4-.5,0,0h0Z" fill="#70ba2b"/>
  <path d="M231.5,1005c0,0,0-.1.1-.2,0,0,0,0-.1.2,0,0,0,0,0,0-5.9,7.7,10.2,9.1,4.2-3.6-1.6.9-3,2.1-4.2,3.6Z" fill="#70ba2b"/>
  <path d="M231.5,1005s0,0,0,0c-.4.6-.9,1.1,0,0Z" fill="#70ba2b"/>
  <path d="M273.5,960.4c-2.3,4-12.3,24.1,1.6,18.1-1.5.6-3,1.3,0,0,3-1.3,1.5-.7,0,0,9.6-4.2,3.8-13.7-1.6-18.1Z" fill="#70ba2b"/>
  <path d="M60.4,909.4c-2.5,4.2-6.7,8.7-6.2,13.9.9,9.7,20-5.2,6.2-13.9Z" fill="#70ba2b"/>
  <path d="M64.3,923.9c-2.1,4.1-11.2,24.9,2.6,18,9.3-4.7,3.1-13.9-2.6-18Z" fill="#70ba2b"/>
  <path d="M66.8,941.9c-5.8,2.9,5.8-2.9,0,0h0Z" fill="#70ba2b"/>
  <path d="M41,920.6c.2,0,.5,0,.7,0,0,0,.1,0,.2,0,0,0-.1,0-.2,0-.2,0-.4,0-.7,0-6.3-.3-7,11.6-2.6,11,5.8-.8,9.2-5.2,9.7-10.8-2.4,0-4.7,0-7.1-.2Z" fill="#70ba2b"/>
  <path d="M41.7,920.6c0,0,.1,0,.2,0,0,0-.1,0-.2,0Z" fill="#70ba2b"/>
  <path d="M40.3,920.6c.2,0,.3,0,.7,0,0,0,0,0,0,0-.3,0-.5,0-.7,0Z" fill="#70ba2b"/>
  <path d="M76.3,914.1s0,0,0,0c1.7.3.8.1,0,0Z" fill="#70ba2b"/>
  <path d="M76.3,914.1s0,0,0,0c-2.5-.5-4.9-1.3-7.3-2.4-.7,5.9,1.8,11.2,7.6,12.9,8.5,2.5,4.9-9.6-.4-10.5Z" fill="#70ba2b"/>
  <path d="M526.5,1011.2c-1-1.3-2.7-.5,0,0h0Z" fill="#70ba2b"/>
  <path d="M620.7,967.2c.3-1.5-2.8-1,0,0h0Z" fill="#70ba2b"/>
  <path d="M221,981.5s0,0,0,0c-.1-.2-.2-.3-.3-.4,0,.1.2.2.3.4Z" fill="#70ba2b"/>
  <path d="M220.7,981.1c-.2-.3-.3-.4,0,0h0Z" fill="#70ba2b"/>
  <path d="M606,920.9c0-.1,0-.3,0-.4-2.2-.6-.4,1.9,0,.4Z" fill="#70ba2b"/>
  <path d="M606.1,920.5c0,.1,0,.3,0,.4,0-.1,0-.3,0-.4Z" fill="#70ba2b"/>
  <path d="M588.3,984.2c-.4-.2.4,1.3,0,0h0Z" fill="#70ba2b"/>
  <path d="M180.5,952.1c-.3.1-.7.3-1.3.7,0,0,0,0,0,0,.6-.3,1-.5,1.3-.7Z" fill="#70ba2b"/>
  <path d="M179.1,952.8s0,0,0,0c-2.9,1.4-1.4.7,0,0Z" fill="#70ba2b"/>
  <path d="M152.9,926.7c-.4-.5-.8-.9,0,0h0Z" fill="#70ba2b"/>
  <path d="M153,926.7s0,0,0,0c0,0,0,0,0,0,0,0,0,0,0,0Z" fill="#70ba2b"/>
  <path d="M42.1,855.3c-.2,0-.7-.1-1.7-.3,0,0,0,0,0,0,.8.1,1.5.2,1.7.3Z" fill="#70ba2b"/>
  <path d="M40.3,855s0,0,0,0c-.2,0-.4,0-.5,0,.2,0,.4,0,.6,0Z" fill="#70ba2b"/>
  <path d="M39.8,854.9c-.5,0-.9-.1-1.1-.2.2,0,.5,0,1.1.2Z" fill="#70ba2b"/>
  <path d="M208.6,942.1s0,0,0,0c.4.6.7,1.2,0,0Z" fill="#70ba2b"/>
  <path d="M208.6,942.1s0,0,0,0c-.1-.2-.2-.3-.3-.5,0,.1.2.3.3.5Z" fill="#70ba2b"/>
  <path d="M208.3,941.6c-.2-.3-.2-.3,0,0h0Z" fill="#70ba2b"/>
  <path d="M208.6,942.1s0,0,0,0c3.9,6.6,14.8-.4,17.2-4.9-3.9-2.2-22.9-5-17.2,4.8,0,0,0,0,0,0Z" fill="#70ba2b"/>
  <path d="M202.2,957c6.4,1.2,11.5-2.8,13-8.8-8.5-3.2-14-.7-13,8.8Z" fill="#70ba2b"/>
  <path d="M140.5,967.8c-1.5-.5-3.1-1,0,0,3.1,1,1.6.5,0,0,9.9,3.3,12-7.6,10.9-14.6-4.4,1.4-25.5,9.7-10.9,14.5Z" fill="#70ba2b"/>
  <path d="M129,929.4s0,0,0,0c-.5,1.1-.2.5,0,0Z" fill="#70ba2b"/>
  <path d="M129,929.4c.4-1,.2-.5,0,0,.7-1.5,1.6-2.9,2.7-4.3-15.3-5.1-6.8,13.8-2.7,4.3Z" fill="#70ba2b"/>
  <path d="M203.2,910.7s0,0,0,0c.9.6,1.8,1.2,0,0Z" fill="#70ba2b"/>
  <path d="M203.2,910.7s0,0,0,0c-1.8-1.2-.9-.6,0,0Z" fill="#70ba2b"/>
</svg>